STARTFONT 2.1
COMMENT
COMMENT Converted from OpenType font "LeagueSpartan-SemiBold.otf" by "otf2bdf 3.0".
COMMENT
FONT -FreeType-League Spartan SemiBold-Medium-R-Normal--25-180-100-100-P-118-ISO10646-1
SIZE 18 100 100
FONTBOUNDINGBOX 32 35 -3 -7
STARTPROPERTIES 19
FOUNDRY "FreeType"
FAMILY_NAME "League Spartan SemiBold"
WEIGHT_NAME "Medium"
SLANT "R"
SETWIDTH_NAME "Normal"
ADD_STYLE_NAME ""
PIXEL_SIZE 25
POINT_SIZE 180
RESOLUTION_X 100
RESOLUTION_Y 100
SPACING "P"
AVERAGE_WIDTH 118
CHARSET_REGISTRY "ISO10646"
CHARSET_ENCODING "1"
FONT_ASCENT 17
FONT_DESCENT 5
COPYRIGHT "OFL"
_OTF_FONTFILE "LeagueSpartan-SemiBold.otf"
_OTF_PSNAME "LeagueSpartan-SemiBold"
ENDPROPERTIES
CHARS 561
STARTCHAR 000D
ENCODING 13
SWIDTH 600 0
DWIDTH 15 0
BBX 0 0 0 0
BITMAP
ENDCHAR
STARTCHAR 0020
ENCODING 32
SWIDTH 240 0
DWIDTH 6 0
BBX 0 0 0 0
BITMAP
ENDCHAR
STARTCHAR 0021
ENCODING 33
SWIDTH 320 0
DWIDTH 8 0
BBX 4 18 2 0
BITMAP
E0
E0
E0
E0
E0
E0
E0
E0
E0
E0
E0
E0
00
00
E0
F0
F0
E0
ENDCHAR
STARTCHAR 0022
ENCODING 34
SWIDTH 400 0
DWIDTH 10 0
BBX 7 7 1 10
BITMAP
66
EE
EE
E6
66
44
44
ENDCHAR
STARTCHAR 0023
ENCODING 35
SWIDTH 640 0
DWIDTH 16 0
BBX 14 17 1 0
BITMAP
0738
0630
0630
0630
0E30
3FFC
3FF8
0C60
1CE0
18C0
7FF0
FFF0
3180
3180
3180
3180
6380
ENDCHAR
STARTCHAR 0024
ENCODING 36
SWIDTH 560 0
DWIDTH 14 0
BBX 11 21 1 -2
BITMAP
0600
0600
1F80
3FE0
7FC0
7040
F000
7000
7800
3F00
1F80
03C0
01E0
00E0
00E0
60E0
FFE0
FFC0
3F80
0600
0600
ENDCHAR
STARTCHAR 0025
ENCODING 37
SWIDTH 760 0
DWIDTH 19 0
BBX 17 17 1 0
BITMAP
3C0C00
7E0C00
C71800
C31800
C33000
E76000
7E6000
3CC000
00C000
018E00
033F00
033180
067180
067180
0C3180
183F80
181E00
ENDCHAR
STARTCHAR 0026
ENCODING 38
SWIDTH 680 0
DWIDTH 17 0
BBX 16 17 1 0
BITMAP
0F80
1FE0
3DE0
3870
3870
3CE0
1DE0
0F80
3F00
7F84
F1CE
E1FE
E0FC
F1F8
FFFC
7FDE
3F0F
ENDCHAR
STARTCHAR 0027
ENCODING 39
SWIDTH 240 0
DWIDTH 6 0
BBX 3 7 1 10
BITMAP
60
E0
E0
E0
60
40
40
ENDCHAR
STARTCHAR 0028
ENCODING 40
SWIDTH 320 0
DWIDTH 8 0
BBX 5 23 1 -5
BITMAP
18
18
38
30
70
70
60
60
E0
E0
E0
E0
E0
E0
E0
E0
60
70
70
30
38
18
10
ENDCHAR
STARTCHAR 0029
ENCODING 41
SWIDTH 320 0
DWIDTH 8 0
BBX 5 23 1 -5
BITMAP
40
E0
60
70
30
30
38
38
38
18
18
18
18
18
38
38
38
38
30
70
60
E0
40
ENDCHAR
STARTCHAR 002A
ENCODING 42
SWIDTH 400 0
DWIDTH 10 0
BBX 6 7 2 10
BITMAP
30
30
FC
78
78
78
48
ENDCHAR
STARTCHAR 002B
ENCODING 43
SWIDTH 520 0
DWIDTH 13 0
BBX 11 10 1 3
BITMAP
0E00
0E00
0E00
FFE0
FFE0
FFE0
0E00
0E00
0E00
0E00
ENDCHAR
STARTCHAR 002C
ENCODING 44
SWIDTH 280 0
DWIDTH 7 0
BBX 4 7 1 -3
BITMAP
70
F0
F0
70
30
20
40
ENDCHAR
STARTCHAR 002D
ENCODING 45
SWIDTH 400 0
DWIDTH 10 0
BBX 7 3 1 4
BITMAP
FE
FE
FE
ENDCHAR
STARTCHAR 002E
ENCODING 46
SWIDTH 320 0
DWIDTH 8 0
BBX 4 4 2 0
BITMAP
E0
F0
F0
E0
ENDCHAR
STARTCHAR 002F
ENCODING 47
SWIDTH 480 0
DWIDTH 12 0
BBX 10 20 1 -2
BITMAP
00C0
01C0
0180
0380
0300
0700
0700
0600
0E00
0C00
1C00
1800
3800
3800
3000
7000
6000
E000
C000
C000
ENDCHAR
STARTCHAR 0030
ENCODING 48
SWIDTH 600 0
DWIDTH 15 0
BBX 13 17 1 0
BITMAP
0F80
3FC0
7FE0
70F0
F070
E070
E078
E078
E038
E078
E078
E070
F070
70F0
7FE0
3FC0
0F80
ENDCHAR
STARTCHAR 0031
ENCODING 49
SWIDTH 320 0
DWIDTH 8 0
BBX 6 17 0 0
BITMAP
0C
3C
FC
FC
DC
9C
1C
1C
1C
1C
1C
1C
1C
1C
1C
1C
1C
ENDCHAR
STARTCHAR 0032
ENCODING 50
SWIDTH 560 0
DWIDTH 14 0
BBX 12 17 1 0
BITMAP
1F80
7FC0
FFE0
F0E0
E0F0
00F0
00E0
00E0
01E0
03C0
0780
0F00
1E00
7C00
FFE0
FFE0
FFE0
ENDCHAR
STARTCHAR 0033
ENCODING 51
SWIDTH 520 0
DWIDTH 13 0
BBX 12 17 0 0
BITMAP
0F80
3FC0
7FE0
70E0
1070
0060
00E0
03C0
03E0
00F0
0070
0070
3070
F0F0
7FE0
3FE0
0F80
ENDCHAR
STARTCHAR 0034
ENCODING 52
SWIDTH 520 0
DWIDTH 13 0
BBX 12 17 0 0
BITMAP
03C0
03C0
07C0
07C0
0FC0
1DC0
1DC0
39C0
39C0
71C0
71C0
FFF0
FFF0
FFF0
01C0
01C0
01C0
ENDCHAR
STARTCHAR 0035
ENCODING 53
SWIDTH 520 0
DWIDTH 13 0
BBX 11 17 1 0
BITMAP
3FC0
7FC0
7FC0
7000
7000
7000
7F80
FFC0
FFE0
60E0
00E0
00E0
00E0
E1E0
FFC0
7F80
1F00
ENDCHAR
STARTCHAR 0036
ENCODING 54
SWIDTH 560 0
DWIDTH 14 0
BBX 12 17 1 0
BITMAP
0380
0700
0F00
1E00
3C00
3A00
7F80
FFE0
F1E0
E0F0
E070
E070
E070
F0E0
7FE0
3FC0
1F00
ENDCHAR
STARTCHAR 0037
ENCODING 55
SWIDTH 520 0
DWIDTH 13 0
BBX 12 17 1 0
BITMAP
FFF0
FFF0
FFF0
00E0
01C0
01C0
0380
0780
0700
0F00
0E00
1E00
1C00
3800
3800
7000
F000
ENDCHAR
STARTCHAR 0038
ENCODING 56
SWIDTH 560 0
DWIDTH 14 0
BBX 12 17 1 0
BITMAP
1F00
3FC0
7BC0
70E0
70E0
70E0
71C0
3F80
3F80
7BE0
F0E0
E0E0
E0F0
F0E0
7FE0
7FC0
1F00
ENDCHAR
STARTCHAR 0039
ENCODING 57
SWIDTH 560 0
DWIDTH 14 0
BBX 12 17 1 0
BITMAP
1F00
3FC0
7FE0
F0E0
E070
E070
E070
E0F0
F1E0
7FE0
3FE0
03C0
0380
0700
0E00
1E00
3C00
ENDCHAR
STARTCHAR 003A
ENCODING 58
SWIDTH 280 0
DWIDTH 7 0
BBX 4 12 1 0
BITMAP
70
F0
F0
70
00
00
00
00
70
F0
F0
70
ENDCHAR
STARTCHAR 003B
ENCODING 59
SWIDTH 280 0
DWIDTH 7 0
BBX 4 14 1 -3
BITMAP
70
F0
F0
70
00
00
00
60
F0
F0
70
30
60
C0
ENDCHAR
STARTCHAR 003C
ENCODING 60
SWIDTH 560 0
DWIDTH 14 0
BBX 11 12 1 2
BITMAP
0020
01E0
07E0
1F80
7E00
F000
F800
7E00
1F80
03E0
00E0
0020
ENDCHAR
STARTCHAR 003D
ENCODING 61
SWIDTH 520 0
DWIDTH 13 0
BBX 10 8 1 4
BITMAP
FFC0
FFC0
FFC0
0000
0000
FFC0
FFC0
FFC0
ENDCHAR
STARTCHAR 003E
ENCODING 62
SWIDTH 560 0
DWIDTH 14 0
BBX 11 12 1 2
BITMAP
8000
F000
FC00
3F00
0FC0
01E0
03E0
0FC0
3F00
F800
E000
8000
ENDCHAR
STARTCHAR 003F
ENCODING 63
SWIDTH 480 0
DWIDTH 12 0
BBX 11 17 0 0
BITMAP
1F00
3FC0
7FE0
F1E0
00E0
01E0
03C0
0780
0E00
0E00
0E00
0E00
0000
0E00
0F00
0F00
0E00
ENDCHAR
STARTCHAR 0040
ENCODING 64
SWIDTH 760 0
DWIDTH 19 0
BBX 17 17 1 0
BITMAP
03F000
1FFC00
3E3E00
780700
700380
E3B380
C7F180
CE3180
CC3180
CC3980
CE3F80
E7EE00
E3C000
700800
3F7C00
1FFC00
07F000
ENDCHAR
STARTCHAR 0041
ENCODING 65
SWIDTH 640 0
DWIDTH 16 0
BBX 16 17 0 0
BITMAP
03C0
03C0
07C0
07E0
07E0
0E70
0E70
0E70
1C38
1C38
3FF8
3FFC
3FFC
701E
700E
700E
F00F
ENDCHAR
STARTCHAR 0042
ENCODING 66
SWIDTH 560 0
DWIDTH 14 0
BBX 11 17 1 0
BITMAP
FF00
FFC0
FFC0
E1E0
E0E0
E1E0
E1C0
FF80
FFC0
E3E0
E0E0
E0E0
E0E0
E0E0
E3E0
FFC0
FF80
ENDCHAR
STARTCHAR 0043
ENCODING 67
SWIDTH 640 0
DWIDTH 16 0
BBX 14 17 1 0
BITMAP
07F0
1FFC
3FF8
7C18
7800
F000
E000
E000
E000
E000
E000
F000
7800
7C18
3FF8
1FFC
03F0
ENDCHAR
STARTCHAR 0044
ENCODING 68
SWIDTH 600 0
DWIDTH 15 0
BBX 12 17 1 0
BITMAP
FF00
FFC0
FFE0
E1E0
E0F0
E070
E070
E070
E070
E070
E070
E070
E0F0
E1E0
FFE0
FFC0
FF00
ENDCHAR
STARTCHAR 0045
ENCODING 69
SWIDTH 520 0
DWIDTH 13 0
BBX 10 17 1 0
BITMAP
FFC0
FFC0
FFC0
E000
E000
E000
E000
FFC0
FFC0
FFC0
E000
E000
E000
E000
FFC0
FFC0
FFC0
ENDCHAR
STARTCHAR 0046
ENCODING 70
SWIDTH 480 0
DWIDTH 12 0
BBX 9 17 1 0
BITMAP
FF80
FF80
FF80
E000
E000
E000
E000
FF80
FF80
FF80
E000
E000
E000
E000
E000
E000
E000
ENDCHAR
STARTCHAR 0047
ENCODING 71
SWIDTH 720 0
DWIDTH 18 0
BBX 16 17 1 0
BITMAP
07E0
1FF8
3FFC
7C3E
F008
F000
E000
E000
E0FF
E0FF
E007
F00F
F00E
7C3E
3FFC
1FF8
07E0
ENDCHAR
STARTCHAR 0048
ENCODING 72
SWIDTH 640 0
DWIDTH 16 0
BBX 13 17 1 0
BITMAP
E038
E038
E038
E038
E038
E038
E038
FFF8
FFF8
FFF8
E038
E038
E038
E038
E038
E038
E038
ENDCHAR
STARTCHAR 0049
ENCODING 73
SWIDTH 240 0
DWIDTH 6 0
BBX 3 17 1 0
BITMAP
E0
E0
E0
E0
E0
E0
E0
E0
E0
E0
E0
E0
E0
E0
E0
E0
E0
ENDCHAR
STARTCHAR 004A
ENCODING 74
SWIDTH 400 0
DWIDTH 10 0
BBX 8 17 0 0
BITMAP
07
07
07
07
07
07
07
07
07
07
07
07
07
47
FF
FE
7C
ENDCHAR
STARTCHAR 004B
ENCODING 75
SWIDTH 560 0
DWIDTH 14 0
BBX 12 17 1 0
BITMAP
E0E0
E1E0
E3C0
E380
E780
EF00
EE00
FC00
FC00
FE00
EF00
E700
E780
E3C0
E1C0
E0E0
E0F0
ENDCHAR
STARTCHAR 004C
ENCODING 76
SWIDTH 480 0
DWIDTH 12 0
BBX 10 17 1 0
BITMAP
E000
E000
E000
E000
E000
E000
E000
E000
E000
E000
E000
E000
E000
E000
FFC0
FFC0
FFC0
ENDCHAR
STARTCHAR 004D
ENCODING 77
SWIDTH 800 0
DWIDTH 20 0
BBX 17 17 1 0
BITMAP
F80F80
F80F80
F80F80
FC1F80
FC1F80
FC1B80
EC3B80
EE3B80
EE3380
E67380
E77380
E76380
E36380
E3E380
E3C380
E1C380
E00380
ENDCHAR
STARTCHAR 004E
ENCODING 78
SWIDTH 720 0
DWIDTH 18 0
BBX 15 17 1 0
BITMAP
F80E
F80E
FC0E
FC0E
EE0E
EE0E
E70E
E70E
E38E
E38E
E1CE
E0EE
E0EE
E07E
E07E
E03E
E03E
ENDCHAR
STARTCHAR 004F
ENCODING 79
SWIDTH 720 0
DWIDTH 18 0
BBX 16 17 1 0
BITMAP
07E0
1FF8
3FFC
7C3E
F00E
E00F
E007
E007
E007
E007
E007
E00F
F00E
783E
3FFC
1FF8
07E0
ENDCHAR
STARTCHAR 0050
ENCODING 80
SWIDTH 520 0
DWIDTH 13 0
BBX 11 17 1 0
BITMAP
FF00
FFC0
E7E0
E1E0
E0E0
E0E0
E0E0
E1E0
FFC0
FF80
FC00
E000
E000
E000
E000
E000
E000
ENDCHAR
STARTCHAR 0051
ENCODING 81
SWIDTH 720 0
DWIDTH 18 0
BBX 16 21 1 -4
BITMAP
07E0
1FF8
3FFC
7C3E
F00E
F00F
E007
E007
E007
E007
E007
E00F
F00E
783E
3FFC
1FF8
0FE0
0FE2
1FFF
08FF
003C
ENDCHAR
STARTCHAR 0052
ENCODING 82
SWIDTH 560 0
DWIDTH 14 0
BBX 12 17 1 0
BITMAP
FF80
FFC0
E7E0
E0E0
E0E0
E0E0
E0E0
E1E0
FFC0
FF80
E700
E380
E380
E1C0
E1E0
E0E0
E0F0
ENDCHAR
STARTCHAR 0053
ENCODING 83
SWIDTH 560 0
DWIDTH 14 0
BBX 11 17 1 0
BITMAP
1F80
3FE0
7FC0
7040
F000
7000
7800
3F00
1F80
07C0
01E0
00E0
00E0
E0E0
FFE0
FFC0
3F00
ENDCHAR
STARTCHAR 0054
ENCODING 84
SWIDTH 520 0
DWIDTH 13 0
BBX 12 17 0 0
BITMAP
FFF0
FFF0
FFF0
0E00
0E00
0E00
0E00
0E00
0E00
0E00
0E00
0E00
0E00
0E00
0E00
0E00
0E00
ENDCHAR
STARTCHAR 0055
ENCODING 85
SWIDTH 640 0
DWIDTH 16 0
BBX 13 17 1 0
BITMAP
E038
E038
E038
E038
E038
E038
E038
E038
E038
E038
E038
E038
F078
7870
7FF0
3FE0
0F80
ENDCHAR
STARTCHAR 0056
ENCODING 86
SWIDTH 640 0
DWIDTH 16 0
BBX 15 17 0 0
BITMAP
F00E
700E
701E
781C
381C
383C
3C38
1C38
1C78
1E70
0E70
0EF0
0FE0
07E0
07C0
03C0
03C0
ENDCHAR
STARTCHAR 0057
ENCODING 87
SWIDTH 880 0
DWIDTH 22 0
BBX 21 17 0 0
BITMAP
F07078
707070
707070
70F870
78F8F0
78F8F0
38D8E0
39DCE0
39DCE0
3DCCE0
1D8DE0
1F8FC0
1F8FC0
1F8FC0
1F07C0
0F0780
0F0780
ENDCHAR
STARTCHAR 0058
ENCODING 88
SWIDTH 680 0
DWIDTH 17 0
BBX 16 17 0 0
BITMAP
781E
3C1C
3C3C
1E78
0E70
0FF0
07E0
03C0
03C0
07E0
0FF0
0E70
1E78
3C3C
383C
781E
F00F
ENDCHAR
STARTCHAR 0059
ENCODING 89
SWIDTH 600 0
DWIDTH 15 0
BBX 14 17 0 0
BITMAP
F03C
F038
7878
3870
3CF0
1CE0
1FE0
0FC0
0FC0
0780
0780
0700
0700
0700
0700
0700
0700
ENDCHAR
STARTCHAR 005A
ENCODING 90
SWIDTH 600 0
DWIDTH 15 0
BBX 13 17 1 0
BITMAP
FFF8
FFF0
FFF0
01E0
01E0
03C0
0380
0780
0F00
0F00
1E00
1C00
3C00
7800
7FF8
FFF8
FFF8
ENDCHAR
STARTCHAR 005B
ENCODING 91
SWIDTH 360 0
DWIDTH 9 0
BBX 6 24 1 -6
BITMAP
FC
FC
E0
E0
E0
E0
E0
E0
E0
E0
E0
E0
E0
E0
E0
E0
E0
E0
E0
E0
E0
E0
FC
FC
ENDCHAR
STARTCHAR 005C
ENCODING 92
SWIDTH 480 0
DWIDTH 12 0
BBX 10 18 1 0
BITMAP
C000
E000
6000
7000
3000
3800
3800
1C00
1C00
0C00
0E00
0600
0700
0300
0380
0180
01C0
00C0
ENDCHAR
STARTCHAR 005D
ENCODING 93
SWIDTH 360 0
DWIDTH 9 0
BBX 6 24 1 -6
BITMAP
FC
FC
0C
0C
0C
0C
0C
0C
0C
0C
0C
0C
0C
0C
0C
0C
0C
0C
0C
0C
0C
0C
FC
FC
ENDCHAR
STARTCHAR 005E
ENCODING 94
SWIDTH 440 0
DWIDTH 11 0
BBX 10 5 0 12
BITMAP
0C00
1E00
3F00
7380
E1C0
ENDCHAR
STARTCHAR 005F
ENCODING 95
SWIDTH 400 0
DWIDTH 10 0
BBX 10 2 0 -2
BITMAP
FFC0
FFC0
ENDCHAR
STARTCHAR 0060
ENCODING 96
SWIDTH 320 0
DWIDTH 8 0
BBX 5 5 2 12
BITMAP
80
E0
F0
38
10
ENDCHAR
STARTCHAR 0061
ENCODING 97
SWIDTH 560 0
DWIDTH 14 0
BBX 11 11 1 0
BITMAP
3EE0
7FE0
FFE0
E1E0
E0E0
E0E0
E0E0
E1E0
FFE0
7FE0
3EE0
ENDCHAR
STARTCHAR 0062
ENCODING 98
SWIDTH 560 0
DWIDTH 14 0
BBX 12 18 1 0
BITMAP
E000
E000
E000
E000
E000
E000
E000
E780
FFC0
FFE0
F0F0
E070
E070
E070
F0F0
FFE0
EFC0
E780
ENDCHAR
STARTCHAR 0063
ENCODING 99
SWIDTH 440 0
DWIDTH 11 0
BBX 9 11 1 0
BITMAP
1F00
7F80
FF00
E000
E000
E000
E000
E000
FF00
7F80
1F00
ENDCHAR
STARTCHAR 0064
ENCODING 100
SWIDTH 560 0
DWIDTH 14 0
BBX 11 18 1 0
BITMAP
00E0
00E0
00E0
00E0
00E0
00E0
00E0
3EE0
7FE0
FFE0
E0E0
E0E0
E0E0
E0E0
E0E0
FFE0
7FE0
3EE0
ENDCHAR
STARTCHAR 0065
ENCODING 101
SWIDTH 480 0
DWIDTH 12 0
BBX 10 11 1 0
BITMAP
3E00
7F80
F3C0
E1C0
FFC0
FFC0
E000
E080
F380
7FC0
1F00
ENDCHAR
STARTCHAR 0066
ENCODING 102
SWIDTH 360 0
DWIDTH 9 0
BBX 9 18 0 0
BITMAP
0F00
1F80
3F00
3800
3800
3800
3800
FF00
FF00
FF00
3800
3800
3800
3800
3800
3800
3800
3800
ENDCHAR
STARTCHAR 0067
ENCODING 103
SWIDTH 560 0
DWIDTH 14 0
BBX 11 17 1 -6
BITMAP
3EE0
7FE0
FFE0
E1E0
E0E0
E0E0
E0E0
E1E0
FFE0
7FE0
3EE0
00E0
00E0
61E0
FFC0
FFC0
3F00
ENDCHAR
STARTCHAR 0068
ENCODING 104
SWIDTH 520 0
DWIDTH 13 0
BBX 11 18 1 0
BITMAP
E000
E000
E000
E000
E000
E000
E000
E780
FFC0
F9E0
F0E0
E0E0
E0E0
E0E0
E0E0
E0E0
E0E0
E0E0
ENDCHAR
STARTCHAR 0069
ENCODING 105
SWIDTH 240 0
DWIDTH 6 0
BBX 4 17 1 0
BITMAP
60
F0
F0
60
00
00
E0
E0
E0
E0
E0
E0
E0
E0
E0
E0
E0
ENDCHAR
STARTCHAR 006A
ENCODING 106
SWIDTH 240 0
DWIDTH 6 0
BBX 6 23 -1 -6
BITMAP
18
3C
3C
18
00
00
1C
1C
1C
1C
1C
1C
1C
1C
1C
1C
1C
1C
1C
3C
F8
F8
F0
ENDCHAR
STARTCHAR 006B
ENCODING 107
SWIDTH 480 0
DWIDTH 12 0
BBX 10 18 1 0
BITMAP
E000
E000
E000
E000
E000
E000
E000
E3C0
E780
EF00
FE00
FC00
FC00
FE00
EF00
E780
E3C0
E1C0
ENDCHAR
STARTCHAR 006C
ENCODING 108
SWIDTH 240 0
DWIDTH 6 0
BBX 3 18 1 0
BITMAP
E0
E0
E0
E0
E0
E0
E0
E0
E0
E0
E0
E0
E0
E0
E0
E0
E0
E0
ENDCHAR
STARTCHAR 006D
ENCODING 109
SWIDTH 800 0
DWIDTH 20 0
BBX 17 11 1 0
BITMAP
E79F00
FFFF80
FBF780
F1E380
E1C380
E1C380
E1C380
E1C380
E1C380
E1C380
E1C380
ENDCHAR
STARTCHAR 006E
ENCODING 110
SWIDTH 520 0
DWIDTH 13 0
BBX 11 11 1 0
BITMAP
E780
FFC0
F9E0
F0E0
E0E0
E0E0
E0E0
E0E0
E0E0
E0E0
E0E0
ENDCHAR
STARTCHAR 006F
ENCODING 111
SWIDTH 520 0
DWIDTH 13 0
BBX 11 11 1 0
BITMAP
1F00
7F80
FFC0
E1C0
E0E0
E0E0
E0E0
E1C0
FFC0
7F80
1F00
ENDCHAR
STARTCHAR 0070
ENCODING 112
SWIDTH 560 0
DWIDTH 14 0
BBX 12 17 1 -6
BITMAP
E780
EFE0
FFE0
F0F0
E070
E070
E070
F0F0
FFE0
EFE0
E780
E000
E000
E000
E000
E000
E000
ENDCHAR
STARTCHAR 0071
ENCODING 113
SWIDTH 560 0
DWIDTH 14 0
BBX 12 17 1 -6
BITMAP
1E70
7F70
7FF0
F0F0
E0F0
E070
E0F0
F0F0
7FF0
7F70
1E70
0070
0070
0070
0070
0070
0070
ENDCHAR
STARTCHAR 0072
ENCODING 114
SWIDTH 360 0
DWIDTH 9 0
BBX 8 11 1 0
BITMAP
EF
FF
FF
F0
E0
E0
E0
E0
E0
E0
E0
ENDCHAR
STARTCHAR 0073
ENCODING 115
SWIDTH 400 0
DWIDTH 10 0
BBX 8 11 1 0
BITMAP
3E
7F
E0
E0
FC
3F
0F
07
CF
FF
7C
ENDCHAR
STARTCHAR 0074
ENCODING 116
SWIDTH 360 0
DWIDTH 9 0
BBX 8 15 0 0
BITMAP
38
38
38
38
FF
FF
FF
38
38
38
38
38
3E
1F
1F
ENDCHAR
STARTCHAR 0075
ENCODING 117
SWIDTH 520 0
DWIDTH 13 0
BBX 11 11 1 0
BITMAP
E0E0
E0E0
E0E0
E0E0
E0E0
E0E0
E0E0
F1E0
7FC0
7FC0
1F00
ENDCHAR
STARTCHAR 0076
ENCODING 118
SWIDTH 520 0
DWIDTH 13 0
BBX 12 11 0 0
BITMAP
F070
7070
70F0
38E0
38E0
3DC0
1DC0
1DC0
0F80
0F80
0F00
ENDCHAR
STARTCHAR 0077
ENCODING 119
SWIDTH 720 0
DWIDTH 18 0
BBX 17 11 0 0
BITMAP
E1C380
F1C780
71C780
73E700
736700
3B7700
3F3E00
3E3E00
3E3E00
1E1E00
1C1C00
ENDCHAR
STARTCHAR 0078
ENCODING 120
SWIDTH 520 0
DWIDTH 13 0
BBX 11 11 1 0
BITMAP
F1E0
71C0
7B80
3F00
1F00
0F00
1F00
3F80
73C0
F1E0
E0E0
ENDCHAR
STARTCHAR 0079
ENCODING 121
SWIDTH 480 0
DWIDTH 12 0
BBX 12 17 0 -6
BITMAP
E070
70E0
70E0
70E0
39C0
39C0
3980
1F80
1F80
0F00
0F00
0E00
0E00
1E00
1C00
1C00
3800
ENDCHAR
STARTCHAR 007A
ENCODING 122
SWIDTH 440 0
DWIDTH 11 0
BBX 10 11 0 0
BITMAP
7FC0
7FC0
0780
0700
0F00
0E00
1C00
3C00
3800
7FC0
FFC0
ENDCHAR
STARTCHAR 007B
ENCODING 123
SWIDTH 360 0
DWIDTH 9 0
BBX 6 24 1 -6
BITMAP
1C
3C
38
30
30
30
30
30
30
30
70
F0
F0
70
30
30
30
30
30
30
30
38
3C
1C
ENDCHAR
STARTCHAR 007C
ENCODING 124
SWIDTH 200 0
DWIDTH 5 0
BBX 3 21 1 -3
BITMAP
E0
E0
E0
E0
E0
E0
E0
E0
E0
E0
E0
E0
E0
E0
E0
E0
E0
E0
E0
E0
E0
ENDCHAR
STARTCHAR 007D
ENCODING 125
SWIDTH 400 0
DWIDTH 10 0
BBX 6 24 2 -6
BITMAP
E0
F0
70
30
30
30
30
30
30
30
38
3C
3C
38
30
30
30
30
30
30
30
70
F0
E0
ENDCHAR
STARTCHAR 007E
ENCODING 126
SWIDTH 600 0
DWIDTH 15 0
BBX 12 4 1 7
BITMAP
3C20
7F70
E7E0
43C0
ENDCHAR
STARTCHAR 00A0
ENCODING 160
SWIDTH 240 0
DWIDTH 6 0
BBX 0 0 0 0
BITMAP
ENDCHAR
STARTCHAR 00A1
ENCODING 161
SWIDTH 320 0
DWIDTH 8 0
BBX 4 18 2 -1
BITMAP
60
F0
F0
E0
00
60
60
60
60
60
E0
E0
E0
E0
E0
E0
F0
F0
ENDCHAR
STARTCHAR 00A2
ENCODING 162
SWIDTH 440 0
DWIDTH 11 0
BBX 9 15 1 -2
BITMAP
0C00
0C00
1F00
7F80
FF00
F000
E000
E000
E000
F000
FF00
7F80
1F00
0C00
0C00
ENDCHAR
STARTCHAR 00A3
ENCODING 163
SWIDTH 600 0
DWIDTH 15 0
BBX 13 17 1 0
BITMAP
0F80
1FE0
3FF0
7870
7040
7000
7000
3800
3800
FF80
FF80
1C00
1C00
1C20
7F78
E7F0
C1E0
ENDCHAR
STARTCHAR 00A4
ENCODING 164
SWIDTH 520 0
DWIDTH 13 0
BBX 12 12 0 1
BITMAP
4230
7FF0
3FE0
78F0
7070
7070
7070
70F0
3FE0
7FF0
EFB0
4000
ENDCHAR
STARTCHAR 00A5
ENCODING 165
SWIDTH 600 0
DWIDTH 15 0
BBX 14 17 0 0
BITMAP
F03C
7038
7878
3870
3CF0
1CE0
1FE0
0FC0
7FF8
7FF8
0780
0700
7FF8
7FF8
0700
0700
0700
ENDCHAR
STARTCHAR 00A6
ENCODING 166
SWIDTH 200 0
DWIDTH 5 0
BBX 3 18 1 0
BITMAP
E0
E0
E0
E0
E0
E0
E0
00
00
00
00
E0
E0
E0
E0
E0
E0
E0
ENDCHAR
STARTCHAR 00A7
ENCODING 167
SWIDTH 520 0
DWIDTH 13 0
BBX 11 23 1 -6
BITMAP
1F00
3F80
7FC0
70C0
7000
7800
7E00
3F80
3FC0
73E0
E1E0
E0E0
F0E0
FDC0
7F80
1F80
07C0
03C0
01C0
E1C0
FFC0
7F80
3F00
ENDCHAR
STARTCHAR 00A8
ENCODING 168
SWIDTH 480 0
DWIDTH 12 0
BBX 8 3 2 12
BITMAP
E7
E7
C6
ENDCHAR
STARTCHAR 00A9
ENCODING 169
SWIDTH 760 0
DWIDTH 19 0
BBX 17 17 1 0
BITMAP
07E000
1FF800
381C00
700E00
600700
C3C300
C7C300
CE0180
8E0180
8E0180
C60180
C7C300
E1C300
700600
381C00
1FF800
07E000
ENDCHAR
STARTCHAR 00AA
ENCODING 170
SWIDTH 440 0
DWIDTH 11 0
BBX 8 7 1 10
BITMAP
3B
7F
63
E3
67
7F
10
ENDCHAR
STARTCHAR 00AB
ENCODING 171
SWIDTH 480 0
DWIDTH 12 0
BBX 10 10 1 1
BITMAP
1080
39C0
3380
6300
C600
E700
6300
3180
19C0
1080
ENDCHAR
STARTCHAR 00AC
ENCODING 172
SWIDTH 480 0
DWIDTH 12 0
BBX 9 5 1 2
BITMAP
FF80
FF80
FF80
0180
0180
ENDCHAR
STARTCHAR 00AD
ENCODING 173
SWIDTH 400 0
DWIDTH 10 0
BBX 7 3 1 4
BITMAP
FE
FE
FE
ENDCHAR
STARTCHAR 00AE
ENCODING 174
SWIDTH 440 0
DWIDTH 11 0
BBX 9 9 1 8
BITMAP
3C00
6200
9900
9900
9980
9900
8500
6600
3C00
ENDCHAR
STARTCHAR 00AF
ENCODING 175
SWIDTH 480 0
DWIDTH 12 0
BBX 8 2 2 13
BITMAP
FF
FF
ENDCHAR
STARTCHAR 00B0
ENCODING 176
SWIDTH 320 0
DWIDTH 8 0
BBX 5 4 1 14
BITMAP
70
D8
D8
70
ENDCHAR
STARTCHAR 00B1
ENCODING 177
SWIDTH 520 0
DWIDTH 13 0
BBX 11 14 1 1
BITMAP
0E00
0E00
0E00
0E00
FFE0
FFE0
FFE0
0E00
0E00
0E00
0000
FFE0
FFE0
FFE0
ENDCHAR
STARTCHAR 00B2
ENCODING 178
SWIDTH 240 0
DWIDTH 6 0
BBX 4 7 1 10
BITMAP
F0
90
10
30
20
C0
F0
ENDCHAR
STARTCHAR 00B3
ENCODING 179
SWIDTH 200 0
DWIDTH 5 0
BBX 5 7 0 10
BITMAP
70
58
08
10
08
C8
70
ENDCHAR
STARTCHAR 00B4
ENCODING 180
SWIDTH 480 0
DWIDTH 12 0
BBX 5 4 3 12
BITMAP
10
38
78
E0
ENDCHAR
STARTCHAR 00B5
ENCODING 181
SWIDTH 520 0
DWIDTH 13 0
BBX 11 16 1 -5
BITMAP
E0E0
E0E0
E0E0
E0E0
E0E0
E0E0
E0E0
F1E0
FFC0
FFC0
FF00
E000
E000
E000
E000
E000
ENDCHAR
STARTCHAR 00B6
ENCODING 182
SWIDTH 520 0
DWIDTH 13 0
BBX 12 17 0 0
BITMAP
1FF0
3FF0
7FB0
7FB0
FFB0
FFB0
7FB0
7FB0
3FB0
1FB0
01B0
01B0
01B0
01B0
01B0
01B0
01B0
ENDCHAR
STARTCHAR 00B7
ENCODING 183
SWIDTH 280 0
DWIDTH 7 0
BBX 4 4 1 3
BITMAP
70
F0
F0
70
ENDCHAR
STARTCHAR 00B8
ENCODING 184
SWIDTH 400 0
DWIDTH 10 0
BBX 6 6 2 -6
BITMAP
20
20
78
0C
F8
78
ENDCHAR
STARTCHAR 00B9
ENCODING 185
SWIDTH 120 0
DWIDTH 3 0
BBX 3 6 0 11
BITMAP
60
E0
60
60
60
60
ENDCHAR
STARTCHAR 00BA
ENCODING 186
SWIDTH 440 0
DWIDTH 11 0
BBX 8 7 1 10
BITMAP
3C
7E
63
E3
67
7E
18
ENDCHAR
STARTCHAR 00BB
ENCODING 187
SWIDTH 480 0
DWIDTH 12 0
BBX 10 10 1 1
BITMAP
4200
E700
7300
3180
19C0
39C0
3380
6300
E600
4200
ENDCHAR
STARTCHAR 00BC
ENCODING 188
SWIDTH 680 0
DWIDTH 17 0
BBX 15 17 1 0
BITMAP
3018
F030
F030
3060
3060
30C0
30C0
318C
311C
331C
063C
066C
0C6C
0CFE
18FE
100C
300C
ENDCHAR
STARTCHAR 00BD
ENCODING 189
SWIDTH 760 0
DWIDTH 19 0
BBX 17 17 1 0
BITMAP
301800
F03000
F03000
306000
306000
30C000
308000
319E00
333F00
333180
060180
060300
0C0300
0C0E00
181C00
303F80
303F80
ENDCHAR
STARTCHAR 00BE
ENCODING 190
SWIDTH 760 0
DWIDTH 19 0
BBX 17 17 1 0
BITMAP
780600
FC0C00
440C00
0C1800
181000
0C3000
066000
C66600
FCC600
78CE00
019A00
011A00
033200
063F80
063F80
0C0200
0C0200
ENDCHAR
STARTCHAR 00BF
ENCODING 191
SWIDTH 480 0
DWIDTH 12 0
BBX 11 17 0 0
BITMAP
0600
0F00
0F00
0E00
0000
0600
0600
0E00
0E00
1E00
3800
7000
F000
F0E0
7FE0
7FC0
1F00
ENDCHAR
STARTCHAR 00C0
ENCODING 192
SWIDTH 640 0
DWIDTH 16 0
BBX 16 22 0 0
BITMAP
0600
0F00
0380
0180
0000
03C0
03C0
07C0
07E0
07E0
0E70
0E70
0E70
1C38
1C38
3FF8
3FFC
3FFC
701E
700E
700E
F00F
ENDCHAR
STARTCHAR 00C1
ENCODING 193
SWIDTH 640 0
DWIDTH 16 0
BBX 16 22 0 0
BITMAP
0060
00E0
03C0
0300
0000
03C0
03C0
07C0
07E0
07E0
0E70
0E70
0E70
1C38
1C38
3FF8
3FFC
3FFC
701E
700E
700E
F00F
ENDCHAR
STARTCHAR 00C2
ENCODING 194
SWIDTH 640 0
DWIDTH 16 0
BBX 16 22 0 1
BITMAP
0380
07E0
0E70
0420
0000
03C0
03C0
07C0
07E0
07E0
0E70
0E70
0E70
1C38
1C38
3FF8
3FFC
3FFC
701E
700E
700E
F00F
ENDCHAR
STARTCHAR 00C3
ENCODING 195
SWIDTH 640 0
DWIDTH 16 0
BBX 16 21 0 0
BITMAP
0730
0FF0
0CE0
0000
03C0
03C0
07C0
07E0
07E0
0E70
0E70
0E70
1C38
1C38
3FF8
3FFC
3FFC
701E
700E
700E
F00F
ENDCHAR
STARTCHAR 00C4
ENCODING 196
SWIDTH 640 0
DWIDTH 16 0
BBX 16 21 0 0
BITMAP
0E70
0E70
0E70
0000
03C0
03C0
07C0
07E0
07E0
0E70
0E70
0E70
1C38
1C38
3FF8
3FFC
3FFC
701E
700E
700E
F00F
ENDCHAR
STARTCHAR 00C5
ENCODING 197
SWIDTH 640 0
DWIDTH 16 0
BBX 16 22 0 0
BITMAP
03C0
0660
0660
03C0
0000
03C0
03C0
07C0
07E0
07E0
0E70
0E70
0E70
1C38
1C38
3FF8
3FFC
3FFC
701E
700E
700E
F00F
ENDCHAR
STARTCHAR 00C6
ENCODING 198
SWIDTH 840 0
DWIDTH 21 0
BBX 20 17 0 0
BITMAP
007FF0
00FFF0
00FFF0
01F800
03F800
03B800
07B800
073FF0
0F3FF0
0E3FF0
1E3800
1FF800
3FF800
383800
783FF0
703FF0
F03FF0
ENDCHAR
STARTCHAR 00C7
ENCODING 199
SWIDTH 640 0
DWIDTH 16 0
BBX 14 23 1 -6
BITMAP
07F0
1FFC
3FF8
7C18
7800
F000
E000
E000
E000
E000
E000
F000
7800
7C18
3FF8
1FFC
07F0
0180
01E0
0060
0060
03E0
03C0
ENDCHAR
STARTCHAR 00C8
ENCODING 200
SWIDTH 520 0
DWIDTH 13 0
BBX 10 22 1 0
BITMAP
3000
7800
1C00
0C00
0000
FFC0
FFC0
FFC0
E000
E000
E000
E000
FFC0
FFC0
FFC0
E000
E000
E000
E000
FFC0
FFC0
FFC0
ENDCHAR
STARTCHAR 00C9
ENCODING 201
SWIDTH 520 0
DWIDTH 13 0
BBX 10 22 1 0
BITMAP
0300
0780
0E00
1800
0000
FFC0
FFC0
FFC0
E000
E000
E000
E000
FFC0
FFC0
FFC0
E000
E000
E000
E000
FFC0
FFC0
FFC0
ENDCHAR
STARTCHAR 00CA
ENCODING 202
SWIDTH 520 0
DWIDTH 13 0
BBX 10 22 1 1
BITMAP
0E00
3F00
7380
2100
0000
FFC0
FFC0
FFC0
E000
E000
E000
E000
FFC0
FFC0
FFC0
E000
E000
E000
E000
FFC0
FFC0
FFC0
ENDCHAR
STARTCHAR 00CB
ENCODING 203
SWIDTH 520 0
DWIDTH 13 0
BBX 10 21 1 0
BITMAP
7380
7380
7380
0000
FFC0
FFC0
FFC0
E000
E000
E000
E000
FFC0
FFC0
FFC0
E000
E000
E000
E000
FFC0
FFC0
FFC0
ENDCHAR
STARTCHAR 00CC
ENCODING 204
SWIDTH 240 0
DWIDTH 6 0
BBX 5 22 -1 0
BITMAP
60
F0
38
18
00
38
38
38
38
38
38
38
38
38
38
38
38
38
38
38
38
38
ENDCHAR
STARTCHAR 00CD
ENCODING 205
SWIDTH 240 0
DWIDTH 6 0
BBX 5 22 1 0
BITMAP
18
38
F0
C0
00
E0
E0
E0
E0
E0
E0
E0
E0
E0
E0
E0
E0
E0
E0
E0
E0
E0
ENDCHAR
STARTCHAR 00CE
ENCODING 206
SWIDTH 240 0
DWIDTH 6 0
BBX 8 22 -1 1
BITMAP
38
7E
E7
42
00
38
38
38
38
38
38
38
38
38
38
38
38
38
38
38
38
38
ENDCHAR
STARTCHAR 00CF
ENCODING 207
SWIDTH 240 0
DWIDTH 6 0
BBX 8 21 -1 0
BITMAP
E7
E7
E7
00
38
38
38
38
38
38
38
38
38
38
38
38
38
38
38
38
38
ENDCHAR
STARTCHAR 00D0
ENCODING 208
SWIDTH 600 0
DWIDTH 15 0
BBX 13 17 0 0
BITMAP
7F80
7FE0
7FF0
70F0
7078
7038
7038
FE38
FE38
FE38
7038
7038
7078
70F0
7FF0
7FE0
7F80
ENDCHAR
STARTCHAR 00D1
ENCODING 209
SWIDTH 720 0
DWIDTH 18 0
BBX 15 22 1 0
BITMAP
0730
0FF0
0CE0
0000
0000
F80E
F80E
FC0E
FC0E
EE0E
EE0E
E70E
E70E
E38E
E38E
E1CE
E0EE
E0EE
E07E
E07E
E03E
E03E
ENDCHAR
STARTCHAR 00D2
ENCODING 210
SWIDTH 720 0
DWIDTH 18 0
BBX 16 22 1 0
BITMAP
0400
0F00
0780
01C0
0080
07E0
1FF8
3FFC
7C3E
F00E
E00F
E007
E007
E007
E007
E007
E00F
F00E
783E
3FFC
1FF8
07E0
ENDCHAR
STARTCHAR 00D3
ENCODING 211
SWIDTH 720 0
DWIDTH 18 0
BBX 16 22 1 0
BITMAP
0040
00E0
01C0
0380
0000
07E0
1FF8
3FFC
7C3E
F00E
E00F
E007
E007
E007
E007
E007
E00F
F00E
783E
3FFC
1FF8
07E0
ENDCHAR
STARTCHAR 00D4
ENCODING 212
SWIDTH 720 0
DWIDTH 18 0
BBX 16 22 1 0
BITMAP
0180
07C0
0EF0
0C20
0000
07E0
1FF8
3FFC
7C3E
F00E
E00F
E007
E007
E007
E007
E007
E00F
F00E
783E
3FFC
1FF8
07E0
ENDCHAR
STARTCHAR 00D5
ENCODING 213
SWIDTH 720 0
DWIDTH 18 0
BBX 16 22 1 0
BITMAP
0730
0FF0
0CE0
0000
0000
07E0
1FF8
3FFC
7C3E
F00E
E00F
E007
E007
E007
E007
E007
E00F
F00E
783E
3FFC
1FF8
07E0
ENDCHAR
STARTCHAR 00D6
ENCODING 214
SWIDTH 720 0
DWIDTH 18 0
BBX 16 21 1 0
BITMAP
0E70
0E70
0E70
0000
07E0
1FF8
3FFC
7C3E
F00E
E00F
E007
E007
E007
E007
E007
E00F
F00E
783E
3FFC
1FF8
07E0
ENDCHAR
STARTCHAR 00D7
ENCODING 215
SWIDTH 520 0
DWIDTH 13 0
BBX 9 10 2 3
BITMAP
4100
E380
F780
7F00
3E00
3E00
7F00
F780
E380
4100
ENDCHAR
STARTCHAR 00D8
ENCODING 216
SWIDTH 720 0
DWIDTH 18 0
BBX 17 17 0 0
BITMAP
03F080
0FFD80
1FFF00
3E1F00
780F00
701F80
703380
706380
70C380
718380
730380
760780
7C0700
3E1F00
3FFE00
6FFC00
C3F000
ENDCHAR
STARTCHAR 00D9
ENCODING 217
SWIDTH 640 0
DWIDTH 16 0
BBX 13 22 1 0
BITMAP
0800
1E00
0F00
0300
0000
E038
E038
E038
E038
E038
E038
E038
E038
E038
E038
E038
E038
F078
7870
7FF0
3FE0
0F80
ENDCHAR
STARTCHAR 00DA
ENCODING 218
SWIDTH 640 0
DWIDTH 16 0
BBX 13 22 1 0
BITMAP
0080
03C0
0780
0600
0000
E038
E038
E038
E038
E038
E038
E038
E038
E038
E038
E038
E038
F078
7870
7FF0
3FE0
0F80
ENDCHAR
STARTCHAR 00DB
ENCODING 219
SWIDTH 640 0
DWIDTH 16 0
BBX 13 23 1 0
BITMAP
0200
0700
0F80
1DE0
1040
0000
E038
E038
E038
E038
E038
E038
E038
E038
E038
E038
E038
E038
F078
7870
7FF0
3FE0
0F80
ENDCHAR
STARTCHAR 00DC
ENCODING 220
SWIDTH 640 0
DWIDTH 16 0
BBX 13 21 1 0
BITMAP
18C0
3DE0
18C0
0000
E038
E038
E038
E038
E038
E038
E038
E038
E038
E038
E038
E038
F078
7870
7FF0
3FE0
0F80
ENDCHAR
STARTCHAR 00DD
ENCODING 221
SWIDTH 600 0
DWIDTH 15 0
BBX 14 22 0 0
BITMAP
00C0
01C0
0780
0600
0000
F03C
F038
7878
3870
3CF0
1CE0
1FE0
0FC0
0FC0
0780
0780
0700
0700
0700
0700
0700
0700
ENDCHAR
STARTCHAR 00DE
ENCODING 222
SWIDTH 520 0
DWIDTH 13 0
BBX 11 17 1 0
BITMAP
E000
E000
E000
FF00
FFC0
E7E0
E1E0
E0E0
E0E0
E0E0
E1E0
E7E0
FFC0
FF00
E000
E000
E000
ENDCHAR
STARTCHAR 00DF
ENCODING 223
SWIDTH 560 0
DWIDTH 14 0
BBX 11 18 1 0
BITMAP
1F00
3FC0
7FC0
70E0
E0E0
E0C0
E1C0
E780
E780
E1C0
E0E0
E0E0
E0E0
E0E0
E1E0
E7C0
E7C0
E700
ENDCHAR
STARTCHAR 00E0
ENCODING 224
SWIDTH 560 0
DWIDTH 14 0
BBX 11 17 1 0
BITMAP
0800
0E00
0F00
0380
0100
0000
3EE0
7FE0
FFE0
E1E0
E0E0
E0E0
E0E0
E1E0
FFE0
7FE0
3EE0
ENDCHAR
STARTCHAR 00E1
ENCODING 225
SWIDTH 560 0
DWIDTH 14 0
BBX 11 17 1 0
BITMAP
0300
0700
0F00
1C00
0000
0000
3EE0
7FE0
FFE0
E1E0
E0E0
E0E0
E0E0
E1E0
FFE0
7FE0
3EE0
ENDCHAR
STARTCHAR 00E2
ENCODING 226
SWIDTH 560 0
DWIDTH 14 0
BBX 11 16 1 0
BITMAP
0600
1F00
3BC0
3080
0000
3EE0
7FE0
FFE0
E1E0
E0E0
E0E0
E0E0
E1E0
FFE0
7FE0
3EE0
ENDCHAR
STARTCHAR 00E3
ENCODING 227
SWIDTH 560 0
DWIDTH 14 0
BBX 11 16 1 0
BITMAP
1CC0
3FC0
3780
0000
0000
3EE0
7FE0
FFE0
E1E0
E0E0
E0E0
E0E0
E1E0
FFE0
7FE0
3EE0
ENDCHAR
STARTCHAR 00E4
ENCODING 228
SWIDTH 560 0
DWIDTH 14 0
BBX 11 15 1 0
BITMAP
39C0
39C0
39C0
0000
3EE0
7FE0
FFE0
E1E0
E0E0
E0E0
E0E0
E1E0
FFE0
7FE0
3EE0
ENDCHAR
STARTCHAR 00E5
ENCODING 229
SWIDTH 560 0
DWIDTH 14 0
BBX 11 17 1 0
BITMAP
0E00
1F00
1980
1F00
0F00
0000
3EE0
7FE0
FFE0
E1E0
E0E0
E0E0
E0E0
E1E0
FFE0
7FE0
3EE0
ENDCHAR
STARTCHAR 00E6
ENCODING 230
SWIDTH 760 0
DWIDTH 19 0
BBX 17 11 1 0
BITMAP
7C3E00
FF7F00
67E380
03C380
19FF80
7FFF80
E3C000
C3C000
E3E700
FFFF80
3C3E00
ENDCHAR
STARTCHAR 00E7
ENCODING 231
SWIDTH 400 0
DWIDTH 10 0
BBX 9 17 1 -6
BITMAP
1F00
7F80
FF00
E000
E000
E000
E000
E000
FF00
7F80
3F00
1000
1C00
1E00
0600
3E00
3C00
ENDCHAR
STARTCHAR 00E8
ENCODING 232
SWIDTH 480 0
DWIDTH 12 0
BBX 10 17 1 0
BITMAP
0800
1C00
1E00
0700
0000
0000
3E00
7F80
F3C0
E1C0
FFC0
FFC0
E000
E080
F380
7FC0
1F00
ENDCHAR
STARTCHAR 00E9
ENCODING 233
SWIDTH 480 0
DWIDTH 12 0
BBX 10 17 1 0
BITMAP
0200
0700
1E00
1800
1000
0000
3E00
7F80
F3C0
E1C0
FFC0
FFC0
E000
E080
F380
7FC0
1F00
ENDCHAR
STARTCHAR 00EA
ENCODING 234
SWIDTH 480 0
DWIDTH 12 0
BBX 10 16 1 0
BITMAP
0C00
1E00
7F80
6180
0000
3E00
7F80
F3C0
E1C0
FFC0
FFC0
E000
E080
F380
7FC0
1F00
ENDCHAR
STARTCHAR 00EB
ENCODING 235
SWIDTH 480 0
DWIDTH 12 0
BBX 10 15 1 0
BITMAP
7380
7380
7380
0000
3E00
7F80
F3C0
E1C0
FFC0
FFC0
E000
E080
F380
7FC0
1F00
ENDCHAR
STARTCHAR 00EC
ENCODING 236
SWIDTH 200 0
DWIDTH 5 0
BBX 5 17 0 0
BITMAP
40
E0
78
18
00
00
70
70
70
70
70
70
70
70
70
70
70
ENDCHAR
STARTCHAR 00ED
ENCODING 237
SWIDTH 200 0
DWIDTH 5 0
BBX 5 17 0 0
BITMAP
10
38
70
E0
00
00
70
70
70
70
70
70
70
70
70
70
70
ENDCHAR
STARTCHAR 00EE
ENCODING 238
SWIDTH 200 0
DWIDTH 5 0
BBX 9 17 -2 0
BITMAP
0800
1C00
3E00
F780
4100
0000
1C00
1C00
1C00
1C00
1C00
1C00
1C00
1C00
1C00
1C00
1C00
ENDCHAR
STARTCHAR 00EF
ENCODING 239
SWIDTH 200 0
DWIDTH 5 0
BBX 9 16 -2 0
BITMAP
6300
F780
6300
0000
0000
1C00
1C00
1C00
1C00
1C00
1C00
1C00
1C00
1C00
1C00
1C00
ENDCHAR
STARTCHAR 00F0
ENCODING 240
SWIDTH 560 0
DWIDTH 14 0
BBX 12 18 1 0
BITMAP
2200
3B00
7E00
1F00
1F80
11C0
01E0
1FE0
7FE0
7FF0
F0F0
E070
E070
E070
F0E0
7FE0
3FC0
1F00
ENDCHAR
STARTCHAR 00F1
ENCODING 241
SWIDTH 520 0
DWIDTH 13 0
BBX 11 16 1 0
BITMAP
3CC0
3F80
6780
0000
0000
E780
FFC0
F9E0
F0E0
E0E0
E0E0
E0E0
E0E0
E0E0
E0E0
E0E0
ENDCHAR
STARTCHAR 00F2
ENCODING 242
SWIDTH 520 0
DWIDTH 13 0
BBX 11 17 1 0
BITMAP
0800
1C00
1E00
0700
0000
0000
1F00
7F80
FFC0
E1C0
E0E0
E0E0
E0E0
E1C0
FFC0
7F80
1F00
ENDCHAR
STARTCHAR 00F3
ENCODING 243
SWIDTH 520 0
DWIDTH 13 0
BBX 11 17 1 0
BITMAP
0200
0700
0E00
1C00
1000
0000
1F00
7F80
FFC0
E1C0
E0E0
E0E0
E0E0
E1C0
FFC0
7F80
1F00
ENDCHAR
STARTCHAR 00F4
ENCODING 244
SWIDTH 520 0
DWIDTH 13 0
BBX 11 16 1 0
BITMAP
0C00
1F00
7B80
2180
0000
1F00
7F80
FFC0
E1C0
E0E0
E0E0
E0E0
E1C0
FFC0
7F80
1F00
ENDCHAR
STARTCHAR 00F5
ENCODING 245
SWIDTH 520 0
DWIDTH 13 0
BBX 11 16 1 0
BITMAP
3980
7F80
6F00
0000
0000
1F00
7F80
FFC0
E1C0
E0E0
E0E0
E0E0
E1C0
FFC0
7F80
1F00
ENDCHAR
STARTCHAR 00F6
ENCODING 246
SWIDTH 520 0
DWIDTH 13 0
BBX 11 15 1 0
BITMAP
7380
7380
3180
0000
1F00
7F80
FFC0
E1C0
E0E0
E0E0
E0E0
E1C0
FFC0
7F80
1F00
ENDCHAR
STARTCHAR 00F7
ENCODING 247
SWIDTH 520 0
DWIDTH 13 0
BBX 10 12 1 2
BITMAP
0C00
0E00
0C00
0000
FFC0
FFC0
FFC0
0000
0000
0C00
0E00
0C00
ENDCHAR
STARTCHAR 00F8
ENCODING 248
SWIDTH 520 0
DWIDTH 13 0
BBX 11 11 1 0
BITMAP
1F60
7FC0
FFC0
E3C0
E6E0
ECE0
F8E0
F1C0
FFC0
FF80
9F00
ENDCHAR
STARTCHAR 00F9
ENCODING 249
SWIDTH 520 0
DWIDTH 13 0
BBX 11 17 1 0
BITMAP
0800
1C00
0F00
0300
0000
0000
E0E0
E0E0
E0E0
E0E0
E0E0
E0E0
E0E0
F1E0
7FC0
7FC0
1F00
ENDCHAR
STARTCHAR 00FA
ENCODING 250
SWIDTH 520 0
DWIDTH 13 0
BBX 11 17 1 0
BITMAP
0200
0700
0E00
1C00
0000
0000
E0E0
E0E0
E0E0
E0E0
E0E0
E0E0
E0E0
F1E0
7FC0
7FC0
1F00
ENDCHAR
STARTCHAR 00FB
ENCODING 251
SWIDTH 520 0
DWIDTH 13 0
BBX 11 17 1 0
BITMAP
0400
0E00
1F00
7BC0
2080
0000
E0E0
E0E0
E0E0
E0E0
E0E0
E0E0
E0E0
F1E0
7FC0
7FC0
1F00
ENDCHAR
STARTCHAR 00FC
ENCODING 252
SWIDTH 520 0
DWIDTH 13 0
BBX 11 16 1 0
BITMAP
3180
3BC0
3980
0000
0000
E0E0
E0E0
E0E0
E0E0
E0E0
E0E0
E0E0
F1E0
7FC0
7FC0
1F00
ENDCHAR
STARTCHAR 00FD
ENCODING 253
SWIDTH 480 0
DWIDTH 12 0
BBX 12 23 0 -6
BITMAP
0100
0780
0F00
0C00
0000
0000
E070
70E0
70E0
70E0
39C0
39C0
3980
1F80
1F80
0F00
0F00
0E00
0E00
1E00
1C00
1C00
3800
ENDCHAR
STARTCHAR 00FE
ENCODING 254
SWIDTH 560 0
DWIDTH 14 0
BBX 12 24 1 -6
BITMAP
E000
E000
E000
E000
E000
E000
E000
E780
FFC0
FFE0
F0F0
E070
E070
E070
F0F0
FFE0
EFC0
E780
E000
E000
E000
E000
E000
E000
ENDCHAR
STARTCHAR 00FF
ENCODING 255
SWIDTH 480 0
DWIDTH 12 0
BBX 12 22 0 -6
BITMAP
19C0
39C0
39C0
0000
0000
E070
70E0
70E0
70E0
39C0
39C0
3980
1F80
1F80
0F00
0F00
0E00
0E00
1E00
1C00
1C00
3800
ENDCHAR
STARTCHAR 0100
ENCODING 256
SWIDTH 640 0
DWIDTH 16 0
BBX 16 21 0 0
BITMAP
0FF0
0FF0
0000
0000
03C0
03C0
07C0
07E0
07E0
0E70
0E70
0E70
1C38
1C38
3FF8
3FFC
3FFC
701E
700E
700E
F00F
ENDCHAR
STARTCHAR 0101
ENCODING 257
SWIDTH 560 0
DWIDTH 14 0
BBX 11 15 1 0
BITMAP
3FC0
3FC0
0000
0000
3EE0
7FE0
FFE0
E1E0
E0E0
E0E0
E0E0
E1E0
FFE0
7FE0
3EE0
ENDCHAR
STARTCHAR 0102
ENCODING 258
SWIDTH 640 0
DWIDTH 16 0
BBX 16 21 0 0
BITMAP
0C70
07E0
03C0
0000
03C0
03C0
07C0
07E0
07E0
0E70
0E70
0E70
1C38
1C38
3FF8
3FFC
3FFC
701E
700E
700E
F00F
ENDCHAR
STARTCHAR 0103
ENCODING 259
SWIDTH 560 0
DWIDTH 14 0
BBX 11 17 1 0
BITMAP
30C0
31C0
3F80
0F00
0000
0000
3EE0
7FE0
FFE0
E1E0
E0E0
E0E0
E0E0
E1E0
FFE0
7FE0
3EE0
ENDCHAR
STARTCHAR 0104
ENCODING 260
SWIDTH 640 0
DWIDTH 16 0
BBX 16 23 0 -6
BITMAP
03C0
03C0
07C0
07E0
07E0
0E70
0E70
0E70
1C38
1C38
3FF8
3FFC
3FFC
701E
700E
700E
F00F
0008
0018
0010
0010
001F
001E
ENDCHAR
STARTCHAR 0105
ENCODING 261
SWIDTH 560 0
DWIDTH 14 0
BBX 12 17 1 -6
BITMAP
3EE0
7FE0
FFE0
E1E0
E0E0
E0E0
E0E0
E1E0
FFE0
7FE0
3EE0
00C0
0080
0180
0180
01F0
00E0
ENDCHAR
STARTCHAR 0106
ENCODING 262
SWIDTH 640 0
DWIDTH 16 0
BBX 14 22 1 0
BITMAP
0040
00E0
01C0
0380
0000
07F0
1FFC
3FF8
7C18
7800
F000
E000
E000
E000
E000
E000
F000
7800
7C18
3FF8
1FFC
03F0
ENDCHAR
STARTCHAR 0107
ENCODING 263
SWIDTH 400 0
DWIDTH 10 0
BBX 9 17 1 0
BITMAP
0200
0700
0F00
1C00
0000
0000
1F00
7F80
FF00
E000
E000
E000
E000
E000
FF00
7F80
1F00
ENDCHAR
STARTCHAR 0108
ENCODING 264
SWIDTH 640 0
DWIDTH 16 0
BBX 14 22 1 0
BITMAP
0180
07C0
0EF0
0C30
0000
07F0
1FFC
3FF8
7C18
7800
F000
E000
E000
E000
E000
E000
F000
7800
7C18
3FF8
1FFC
03F0
ENDCHAR
STARTCHAR 0109
ENCODING 265
SWIDTH 440 0
DWIDTH 11 0
BBX 9 16 1 0
BITMAP
1800
3E00
F700
4300
0000
1F00
7F80
FF00
E000
E000
E000
E000
E000
FF00
7F80
1F00
ENDCHAR
STARTCHAR 010A
ENCODING 266
SWIDTH 640 0
DWIDTH 16 0
BBX 14 21 1 0
BITMAP
0180
03C0
0180
0000
07F0
1FFC
3FF8
7C18
7800
F000
E000
E000
E000
E000
E000
F000
7800
7C18
3FF8
1FFC
03F0
ENDCHAR
STARTCHAR 010B
ENCODING 267
SWIDTH 400 0
DWIDTH 10 0
BBX 9 16 1 0
BITMAP
1C00
1C00
1C00
0000
0000
1F00
7F80
FF00
E000
E000
E000
E000
E000
FF00
7F80
1F00
ENDCHAR
STARTCHAR 010C
ENCODING 268
SWIDTH 640 0
DWIDTH 16 0
BBX 14 21 1 0
BITMAP
0660
07E0
03C0
0000
07F0
1FFC
3FF8
7C18
7800
F000
E000
E000
E000
E000
E000
F000
7800
7C18
3FF8
1FFC
03F0
ENDCHAR
STARTCHAR 010D
ENCODING 269
SWIDTH 400 0
DWIDTH 10 0
BBX 9 17 1 0
BITMAP
4100
F380
7F00
1C00
0800
0000
1F00
7F80
FF00
E000
E000
E000
E000
E000
FF00
7F80
1F00
ENDCHAR
STARTCHAR 010E
ENCODING 270
SWIDTH 600 0
DWIDTH 15 0
BBX 12 22 1 0
BITMAP
1080
1980
1F80
0600
0000
FF00
FFC0
FFE0
E1E0
E0F0
E070
E070
E070
E070
E070
E070
E070
E0F0
E1E0
FFE0
FFC0
FF00
ENDCHAR
STARTCHAR 010F
ENCODING 271
SWIDTH 600 0
DWIDTH 15 0
BBX 16 18 1 0
BITMAP
00E6
00E7
00E3
00E2
00E4
00E0
00E0
3EE0
7FE0
FFE0
E0E0
E0E0
E0E0
E0E0
E0E0
FFE0
7FE0
3EE0
ENDCHAR
STARTCHAR 0110
ENCODING 272
SWIDTH 600 0
DWIDTH 15 0
BBX 13 17 0 0
BITMAP
7F80
7FE0
7FF0
70F0
7078
7038
7038
FE38
FE38
FE38
7038
7038
7078
70F0
7FF0
7FE0
7F80
ENDCHAR
STARTCHAR 0111
ENCODING 273
SWIDTH 560 0
DWIDTH 14 0
BBX 13 18 1 0
BITMAP
00E0
00E0
00E0
03F8
03F8
00E0
00E0
3EE0
7FE0
FFE0
E0E0
E0E0
E0E0
E0E0
E0E0
FFE0
7FE0
3EE0
ENDCHAR
STARTCHAR 0112
ENCODING 274
SWIDTH 520 0
DWIDTH 13 0
BBX 10 21 1 0
BITMAP
7F80
7F80
0000
0000
FFC0
FFC0
FFC0
E000
E000
E000
E000
FFC0
FFC0
FFC0
E000
E000
E000
E000
FFC0
FFC0
FFC0
ENDCHAR
STARTCHAR 0113
ENCODING 275
SWIDTH 480 0
DWIDTH 12 0
BBX 10 15 1 0
BITMAP
7F80
7F80
0000
0000
3E00
7F80
F3C0
E1C0
FFC0
FFC0
E000
E080
F380
7FC0
1F00
ENDCHAR
STARTCHAR 0114
ENCODING 276
SWIDTH 520 0
DWIDTH 13 0
BBX 10 21 1 0
BITMAP
7180
3F00
1E00
0000
FFC0
FFC0
FFC0
E000
E000
E000
E000
FFC0
FFC0
FFC0
E000
E000
E000
E000
FFC0
FFC0
FFC0
ENDCHAR
STARTCHAR 0115
ENCODING 277
SWIDTH 480 0
DWIDTH 12 0
BBX 10 16 1 0
BITMAP
2100
7380
7F00
1E00
0000
3E00
7F80
F3C0
E1C0
FFC0
FFC0
E000
E080
F380
7FC0
1F00
ENDCHAR
STARTCHAR 0116
ENCODING 278
SWIDTH 520 0
DWIDTH 13 0
BBX 10 21 1 0
BITMAP
0C00
1E00
0C00
0000
FFC0
FFC0
FFC0
E000
E000
E000
E000
FFC0
FFC0
FFC0
E000
E000
E000
E000
FFC0
FFC0
FFC0
ENDCHAR
STARTCHAR 0117
ENCODING 279
SWIDTH 480 0
DWIDTH 12 0
BBX 10 16 1 0
BITMAP
0C00
1C00
1C00
0000
0000
3E00
7F80
F3C0
E1C0
FFC0
FFC0
E000
E080
F380
7FC0
1F00
ENDCHAR
STARTCHAR 0118
ENCODING 280
SWIDTH 520 0
DWIDTH 13 0
BBX 10 22 1 -6
BITMAP
FFC0
FFC0
FFC0
E000
E000
E000
E000
FFC0
FFC0
FFC0
E000
E000
E000
E000
FFC0
FFC0
FFC0
0200
0600
0400
0C80
07C0
ENDCHAR
STARTCHAR 0119
ENCODING 281
SWIDTH 480 0
DWIDTH 12 0
BBX 10 17 1 -6
BITMAP
3E00
7F80
F3C0
E1C0
FFC0
FFC0
E000
E080
F380
7FC0
1F00
0400
0C00
0C00
0C00
0F80
0700
ENDCHAR
STARTCHAR 011A
ENCODING 282
SWIDTH 520 0
DWIDTH 13 0
BBX 10 22 1 0
BITMAP
2000
3300
3F00
0C00
0000
FFC0
FFC0
FFC0
E000
E000
E000
E000
FFC0
FFC0
FFC0
E000
E000
E000
E000
FFC0
FFC0
FFC0
ENDCHAR
STARTCHAR 011B
ENCODING 283
SWIDTH 480 0
DWIDTH 12 0
BBX 10 17 1 0
BITMAP
0100
7380
3F00
1C00
0800
0000
3E00
7F80
F3C0
E1C0
FFC0
FFC0
E000
E080
F380
7FC0
1F00
ENDCHAR
STARTCHAR 011C
ENCODING 284
SWIDTH 720 0
DWIDTH 18 0
BBX 16 22 1 0
BITMAP
0180
07C0
0EF0
0C20
0000
07E0
1FF8
3FFC
7C3E
F008
F000
E000
E000
E0FF
E0FF
E007
F00F
F00E
7C3E
3FFC
1FF8
07E0
ENDCHAR
STARTCHAR 011D
ENCODING 285
SWIDTH 560 0
DWIDTH 14 0
BBX 11 22 1 -6
BITMAP
0600
1F00
3BC0
3080
0000
3EE0
7FE0
FFE0
E1E0
E0E0
E0E0
E0E0
E1E0
FFE0
7FE0
3EE0
00E0
00E0
61E0
FFC0
FFC0
3F00
ENDCHAR
STARTCHAR 011E
ENCODING 286
SWIDTH 720 0
DWIDTH 18 0
BBX 16 21 1 0
BITMAP
0C70
07E0
03C0
0000
07E0
1FF8
3FFC
7C3E
F008
F000
E000
E000
E0FF
E0FF
E007
F00F
F00E
7C3E
3FFC
1FF8
07E0
ENDCHAR
STARTCHAR 011F
ENCODING 287
SWIDTH 560 0
DWIDTH 14 0
BBX 11 23 1 -6
BITMAP
6180
7180
3F80
1E00
0000
0000
3EE0
7FE0
FFE0
E1E0
E0E0
E0E0
E0E0
E1E0
FFE0
7FE0
3EE0
00E0
00E0
61E0
FFC0
FFC0
3F00
ENDCHAR
STARTCHAR 0120
ENCODING 288
SWIDTH 720 0
DWIDTH 18 0
BBX 16 21 1 0
BITMAP
0180
03C0
0380
0000
07E0
1FF8
3FFC
7C3E
F008
F000
E000
E000
E0FF
E0FF
E007
F00F
F00E
7C3E
3FFC
1FF8
07E0
ENDCHAR
STARTCHAR 0121
ENCODING 289
SWIDTH 560 0
DWIDTH 14 0
BBX 11 22 1 -6
BITMAP
0C00
0E00
0E00
0000
0000
3EE0
7FE0
FFE0
E1E0
E0E0
E0E0
E0E0
E1E0
FFE0
7FE0
3EE0
00E0
00E0
61E0
FFC0
FFC0
3F00
ENDCHAR
STARTCHAR 0122
ENCODING 290
SWIDTH 720 0
DWIDTH 18 0
BBX 16 24 1 -7
BITMAP
07E0
1FF8
3FFC
7C3E
F008
F000
E000
E000
E0FF
E0FF
E007
F00F
F00E
7C3E
3FFC
1FF8
07E0
0000
01C0
01C0
01C0
0080
0180
0100
ENDCHAR
STARTCHAR 0123
ENCODING 291
SWIDTH 560 0
DWIDTH 14 0
BBX 11 23 1 -6
BITMAP
0600
0400
0E00
0E00
0400
0000
3EE0
7FE0
FFE0
E1E0
E0E0
E0E0
E0E0
E1E0
FFE0
7FE0
3EE0
00E0
00E0
61E0
FFC0
FFC0
3F00
ENDCHAR
STARTCHAR 0124
ENCODING 292
SWIDTH 640 0
DWIDTH 16 0
BBX 13 23 1 0
BITMAP
0200
0700
0F80
3DE0
1040
0000
E038
E038
E038
E038
E038
E038
E038
FFF8
FFF8
FFF8
E038
E038
E038
E038
E038
E038
E038
ENDCHAR
STARTCHAR 0125
ENCODING 293
SWIDTH 520 0
DWIDTH 13 0
BBX 11 24 1 0
BITMAP
0E00
1F00
7B80
2180
0000
0000
E000
E000
E000
E000
E000
E000
E000
E780
FFC0
F9E0
F0E0
E0E0
E0E0
E0E0
E0E0
E0E0
E0E0
E0E0
ENDCHAR
STARTCHAR 0126
ENCODING 294
SWIDTH 640 0
DWIDTH 16 0
BBX 15 17 0 0
BITMAP
701C
701C
FFFE
FFFE
701C
701C
701C
7FFC
7FFC
7FFC
701C
701C
701C
701C
701C
701C
701C
ENDCHAR
STARTCHAR 0127
ENCODING 295
SWIDTH 520 0
DWIDTH 13 0
BBX 12 18 0 0
BITMAP
7000
7000
7000
FE00
FE00
7000
7000
73C0
7FE0
7CF0
7870
7070
7070
7070
7070
7070
7070
7070
ENDCHAR
STARTCHAR 0128
ENCODING 296
SWIDTH 240 0
DWIDTH 6 0
BBX 8 21 -1 0
BITMAP
73
FF
8E
00
38
38
38
38
38
38
38
38
38
38
38
38
38
38
38
38
38
ENDCHAR
STARTCHAR 0129
ENCODING 297
SWIDTH 200 0
DWIDTH 5 0
BBX 9 16 -2 0
BITMAP
7980
7F00
CF00
0000
0000
1C00
1C00
1C00
1C00
1C00
1C00
1C00
1C00
1C00
1C00
1C00
ENDCHAR
STARTCHAR 012A
ENCODING 298
SWIDTH 240 0
DWIDTH 6 0
BBX 8 21 -1 0
BITMAP
FF
FF
00
00
38
38
38
38
38
38
38
38
38
38
38
38
38
38
38
38
38
ENDCHAR
STARTCHAR 012B
ENCODING 299
SWIDTH 200 0
DWIDTH 5 0
BBX 8 16 -2 0
BITMAP
FF
FF
00
00
00
1C
1C
1C
1C
1C
1C
1C
1C
1C
1C
1C
ENDCHAR
STARTCHAR 012C
ENCODING 300
SWIDTH 240 0
DWIDTH 6 0
BBX 8 21 -1 0
BITMAP
C7
7E
3C
00
38
38
38
38
38
38
38
38
38
38
38
38
38
38
38
38
38
ENDCHAR
STARTCHAR 012D
ENCODING 301
SWIDTH 200 0
DWIDTH 5 0
BBX 8 16 -2 0
BITMAP
43
E3
7F
3C
00
1C
1C
1C
1C
1C
1C
1C
1C
1C
1C
1C
ENDCHAR
STARTCHAR 012E
ENCODING 302
SWIDTH 240 0
DWIDTH 6 0
BBX 5 23 0 -6
BITMAP
70
70
70
70
70
70
70
70
70
70
70
70
70
70
70
70
70
20
60
40
C0
F8
78
ENDCHAR
STARTCHAR 012F
ENCODING 303
SWIDTH 240 0
DWIDTH 6 0
BBX 5 23 0 -6
BITMAP
30
78
78
30
00
00
70
70
70
70
70
70
70
70
70
70
70
20
60
40
C0
F8
78
ENDCHAR
STARTCHAR 0130
ENCODING 304
SWIDTH 240 0
DWIDTH 6 0
BBX 3 21 1 0
BITMAP
E0
E0
60
00
E0
E0
E0
E0
E0
E0
E0
E0
E0
E0
E0
E0
E0
E0
E0
E0
E0
ENDCHAR
STARTCHAR 0131
ENCODING 305
SWIDTH 200 0
DWIDTH 5 0
BBX 3 11 1 0
BITMAP
E0
E0
E0
E0
E0
E0
E0
E0
E0
E0
E0
ENDCHAR
STARTCHAR 0134
ENCODING 308
SWIDTH 400 0
DWIDTH 10 0
BBX 11 22 0 1
BITMAP
0780
0FC0
1CE0
0840
0000
0700
0700
0700
0700
0700
0700
0700
0700
0700
0700
0700
0700
0700
4700
FF00
FE00
7C00
ENDCHAR
STARTCHAR 0135
ENCODING 309
SWIDTH 240 0
DWIDTH 6 0
BBX 8 22 -1 -5
BITMAP
1C
7E
E7
43
00
1C
1C
1C
1C
1C
1C
1C
1C
1C
1C
1C
1C
1C
3C
F8
F8
F0
ENDCHAR
STARTCHAR 0136
ENCODING 310
SWIDTH 560 0
DWIDTH 14 0
BBX 12 24 1 -7
BITMAP
E0E0
E1E0
E3C0
E380
E780
EF00
EE00
FC00
FC00
FE00
EF00
E700
E780
E3C0
E1C0
E0E0
E0F0
0000
0600
0F00
0E00
0200
0600
0400
ENDCHAR
STARTCHAR 0137
ENCODING 311
SWIDTH 480 0
DWIDTH 12 0
BBX 10 24 1 -7
BITMAP
E000
E000
E000
E000
E000
E000
E000
E3C0
E780
EF00
FE00
FC00
FC00
FE00
EF00
E780
E3C0
E1C0
0000
1C00
1C00
0C00
0400
0800
ENDCHAR
STARTCHAR 0138
ENCODING 312
SWIDTH 480 0
DWIDTH 12 0
BBX 10 11 1 0
BITMAP
E3C0
E780
E700
EE00
FC00
FC00
FE00
EF00
E700
E380
E1C0
ENDCHAR
STARTCHAR 0139
ENCODING 313
SWIDTH 480 0
DWIDTH 12 0
BBX 10 22 1 0
BITMAP
0600
0F00
1E00
1800
0000
E000
E000
E000
E000
E000
E000
E000
E000
E000
E000
E000
E000
E000
E000
FFC0
FFC0
FFC0
ENDCHAR
STARTCHAR 013A
ENCODING 314
SWIDTH 240 0
DWIDTH 6 0
BBX 5 24 1 0
BITMAP
18
38
70
C0
00
00
E0
E0
E0
E0
E0
E0
E0
E0
E0
E0
E0
E0
E0
E0
E0
E0
E0
E0
ENDCHAR
STARTCHAR 013B
ENCODING 315
SWIDTH 480 0
DWIDTH 12 0
BBX 10 24 1 -7
BITMAP
E000
E000
E000
E000
E000
E000
E000
E000
E000
E000
E000
E000
E000
E000
FFC0
FFC0
FFC0
0000
0C00
1E00
1C00
0400
0C00
0800
ENDCHAR
STARTCHAR 013C
ENCODING 316
SWIDTH 240 0
DWIDTH 6 0
BBX 3 24 1 -7
BITMAP
E0
E0
E0
E0
E0
E0
E0
E0
E0
E0
E0
E0
E0
E0
E0
E0
E0
E0
00
E0
E0
60
20
40
ENDCHAR
STARTCHAR 013D
ENCODING 317
SWIDTH 480 0
DWIDTH 12 0
BBX 11 17 1 0
BITMAP
E060
E060
E020
E060
E040
E000
E000
E000
E000
E000
E000
E000
E000
E000
FFC0
FFC0
FFC0
ENDCHAR
STARTCHAR 013E
ENCODING 318
SWIDTH 240 0
DWIDTH 6 0
BBX 8 18 1 0
BITMAP
E2
E7
E7
E2
E6
E0
E0
E0
E0
E0
E0
E0
E0
E0
E0
E0
E0
E0
ENDCHAR
STARTCHAR 013F
ENCODING 319
SWIDTH 480 0
DWIDTH 12 0
BBX 10 17 1 0
BITMAP
E000
E000
E000
E000
E000
E000
E380
E780
E780
E380
E000
E000
E000
E000
FFC0
FFC0
FFC0
ENDCHAR
STARTCHAR 0140
ENCODING 320
SWIDTH 360 0
DWIDTH 9 0
BBX 8 18 1 0
BITMAP
E0
E0
E0
E0
E0
E0
E0
E7
EF
EF
E7
E0
E0
E0
E0
E0
E0
E0
ENDCHAR
STARTCHAR 0141
ENCODING 321
SWIDTH 520 0
DWIDTH 13 0
BBX 11 17 0 0
BITMAP
3800
3800
3800
3800
3A00
3E00
3E00
3800
7800
F800
F800
3800
3800
3800
3FE0
3FE0
3FE0
ENDCHAR
STARTCHAR 0142
ENCODING 322
SWIDTH 280 0
DWIDTH 7 0
BBX 6 18 0 0
BITMAP
38
38
38
38
38
3C
3C
3C
38
F8
F8
B8
38
38
38
38
38
38
ENDCHAR
STARTCHAR 0143
ENCODING 323
SWIDTH 720 0
DWIDTH 18 0
BBX 15 22 1 0
BITMAP
0040
01E0
03C0
0300
0000
F80E
F80E
FC0E
FC0E
EE0E
EE0E
E70E
E70E
E38E
E38E
E1CE
E0EE
E0EE
E07E
E07E
E03E
E03E
ENDCHAR
STARTCHAR 0144
ENCODING 324
SWIDTH 520 0
DWIDTH 13 0
BBX 11 17 1 0
BITMAP
0080
0380
0780
0E00
0000
0000
E780
FFC0
F9E0
F0E0
E0E0
E0E0
E0E0
E0E0
E0E0
E0E0
E0E0
ENDCHAR
STARTCHAR 0145
ENCODING 325
SWIDTH 720 0
DWIDTH 18 0
BBX 15 23 1 -7
BITMAP
F80E
F80E
FC0E
FC0E
EE0E
EE0E
E70E
E70E
E38E
E38E
E1CE
E0EE
E0EE
E07E
E07E
E03E
E03E
0000
0380
0380
0380
0080
0100
ENDCHAR
STARTCHAR 0146
ENCODING 326
SWIDTH 520 0
DWIDTH 13 0
BBX 11 17 1 -7
BITMAP
E780
FFC0
F9E0
F0E0
E0E0
E0E0
E0E0
E0E0
E0E0
E0E0
E0E0
0000
0E00
0E00
0E00
0600
0C00
ENDCHAR
STARTCHAR 0147
ENCODING 327
SWIDTH 720 0
DWIDTH 18 0
BBX 15 21 1 1
BITMAP
0E60
07C0
0380
0000
F80E
F80E
FC0E
FC0E
EE0E
EE0E
E70E
E70E
E38E
E38E
E1CE
E0EE
E0EE
E07E
E07E
E03E
E03E
ENDCHAR
STARTCHAR 0148
ENCODING 328
SWIDTH 520 0
DWIDTH 13 0
BBX 11 17 1 0
BITMAP
2080
7380
3F00
0E00
0400
0000
E780
FFC0
F9E0
F0E0
E0E0
E0E0
E0E0
E0E0
E0E0
E0E0
E0E0
ENDCHAR
STARTCHAR 014A
ENCODING 330
SWIDTH 720 0
DWIDTH 18 0
BBX 15 23 1 -6
BITMAP
F80E
F80E
FC0E
FC0E
EE0E
EE0E
E70E
E70E
E38E
E38E
E1CE
E0EE
E0EE
E07E
E07E
E03E
E03E
000E
001E
001E
007C
00FC
00F8
ENDCHAR
STARTCHAR 014B
ENCODING 331
SWIDTH 520 0
DWIDTH 13 0
BBX 11 17 1 -6
BITMAP
E780
FFC0
F9E0
F0E0
E0E0
E0E0
E0E0
E0E0
E0E0
E0E0
E0E0
00E0
00E0
00E0
03E0
07C0
0780
ENDCHAR
STARTCHAR 014C
ENCODING 332
SWIDTH 720 0
DWIDTH 18 0
BBX 16 21 1 0
BITMAP
0FF0
0FF0
0000
0000
07E0
1FF8
3FFC
7C3E
F00E
E00F
E007
E007
E007
E007
E007
E00F
F00E
783E
3FFC
1FF8
07E0
ENDCHAR
STARTCHAR 014D
ENCODING 333
SWIDTH 520 0
DWIDTH 13 0
BBX 11 15 1 0
BITMAP
7F80
7F80
0000
0000
1F00
7F80
FFC0
E1C0
E0E0
E0E0
E0E0
E1C0
FFC0
7F80
1F00
ENDCHAR
STARTCHAR 014E
ENCODING 334
SWIDTH 720 0
DWIDTH 18 0
BBX 16 21 1 0
BITMAP
0C70
07E0
03C0
0000
07E0
1FF8
3FFC
7C3E
F00E
E00F
E007
E007
E007
E007
E007
E00F
F00E
783E
3FFC
1FF8
07E0
ENDCHAR
STARTCHAR 014F
ENCODING 335
SWIDTH 520 0
DWIDTH 13 0
BBX 11 16 1 0
BITMAP
2180
7180
3F80
1E00
0000
1F00
7F80
FFC0
E1C0
E0E0
E0E0
E0E0
E1C0
FFC0
7F80
1F00
ENDCHAR
STARTCHAR 0150
ENCODING 336
SWIDTH 720 0
DWIDTH 18 0
BBX 16 23 1 0
BITMAP
0330
0738
0E60
0CC0
0800
0000
07E0
1FF8
3FFC
7C3E
F00E
E00F
E007
E007
E007
E007
E007
E00F
F00E
783E
3FFC
1FF8
07E0
ENDCHAR
STARTCHAR 0151
ENCODING 337
SWIDTH 520 0
DWIDTH 13 0
BBX 11 17 1 0
BITMAP
0880
1DC0
3B80
6700
0000
0000
1F00
7F80
FFC0
E1C0
E0E0
E0E0
E0E0
E1C0
FFC0
7F80
1F00
ENDCHAR
STARTCHAR 0152
ENCODING 338
SWIDTH 800 0
DWIDTH 20 0
BBX 19 17 0 0
BITMAP
03FFE0
0FFFE0
1FFFE0
3C3800
783800
703800
703800
F03FC0
F03FC0
F03FC0
703800
703800
783800
3C3800
1FFFE0
0FFFE0
03FFE0
ENDCHAR
STARTCHAR 0153
ENCODING 339
SWIDTH 840 0
DWIDTH 21 0
BBX 19 11 1 0
BITMAP
1F1F00
7FFF80
FFF1C0
E1E0E0
E0FFE0
E0FFE0
E0E000
E1E000
FFF9C0
7FBFC0
1F1F80
ENDCHAR
STARTCHAR 0154
ENCODING 340
SWIDTH 560 0
DWIDTH 14 0
BBX 12 22 1 0
BITMAP
0100
0780
0F00
0C00
0000
FF80
FFC0
E7E0
E0E0
E0E0
E0E0
E0E0
E1E0
FFC0
FF80
E700
E380
E380
E1C0
E1E0
E0E0
E0F0
ENDCHAR
STARTCHAR 0155
ENCODING 341
SWIDTH 400 0
DWIDTH 10 0
BBX 8 17 1 0
BITMAP
04
0E
1C
30
00
00
EF
FF
FF
F0
E0
E0
E0
E0
E0
E0
E0
ENDCHAR
STARTCHAR 0156
ENCODING 342
SWIDTH 560 0
DWIDTH 14 0
BBX 12 23 1 -7
BITMAP
FF80
FFC0
E7E0
E0E0
E0E0
E0E0
E0E0
E1E0
FFC0
FF80
E700
E380
E380
E1C0
E1E0
E0E0
E0F0
0000
0E00
0E00
0E00
0200
0400
ENDCHAR
STARTCHAR 0157
ENCODING 343
SWIDTH 360 0
DWIDTH 9 0
BBX 8 17 1 -7
BITMAP
EF
FF
FF
F0
E0
E0
E0
E0
E0
E0
E0
00
38
38
38
08
10
ENDCHAR
STARTCHAR 0158
ENCODING 344
SWIDTH 560 0
DWIDTH 14 0
BBX 12 21 1 1
BITMAP
3980
1F00
0E00
0000
FF80
FFC0
E7E0
E0E0
E0E0
E0E0
E0E0
E1E0
FFC0
FF80
E700
E380
E380
E1C0
E1E0
E0E0
E0F0
ENDCHAR
STARTCHAR 0159
ENCODING 345
SWIDTH 400 0
DWIDTH 10 0
BBX 8 17 1 0
BITMAP
C2
EF
7C
38
00
00
EF
FF
FF
F0
E0
E0
E0
E0
E0
E0
E0
ENDCHAR
STARTCHAR 015A
ENCODING 346
SWIDTH 560 0
DWIDTH 14 0
BBX 11 22 1 0
BITMAP
0100
0380
0F00
0C00
0800
1F80
3FE0
7FC0
7040
F000
7000
7800
3F00
1F80
07C0
01E0
00E0
00E0
E0E0
FFE0
FFC0
3F00
ENDCHAR
STARTCHAR 015B
ENCODING 347
SWIDTH 400 0
DWIDTH 10 0
BBX 8 17 1 0
BITMAP
04
0E
1C
38
00
00
3E
7F
E0
E0
FC
3F
0F
07
CF
FF
7C
ENDCHAR
STARTCHAR 015C
ENCODING 348
SWIDTH 560 0
DWIDTH 14 0
BBX 11 22 1 0
BITMAP
0E00
1F00
3B80
3180
0000
1F80
3FE0
7FC0
7040
F000
7000
7800
3F00
1F80
07C0
01E0
00E0
00E0
E0E0
FFE0
FFC0
3F00
ENDCHAR
STARTCHAR 015D
ENCODING 349
SWIDTH 400 0
DWIDTH 10 0
BBX 8 16 1 0
BITMAP
18
3E
F7
C3
00
3E
7F
E0
E0
FC
3F
0F
07
CF
FF
7C
ENDCHAR
STARTCHAR 015E
ENCODING 350
SWIDTH 560 0
DWIDTH 14 0
BBX 11 23 1 -6
BITMAP
1F80
3FE0
7FC0
7040
F000
7000
7800
3F00
1F80
07C0
01E0
00E0
00E0
60E0
FFE0
FFC0
3F00
0C00
0E00
0B00
0300
1F00
1E00
ENDCHAR
STARTCHAR 015F
ENCODING 351
SWIDTH 400 0
DWIDTH 10 0
BBX 8 17 1 -6
BITMAP
3E
7F
E0
E0
F8
3F
0F
07
CF
FF
7C
10
1C
0E
06
7E
3C
ENDCHAR
STARTCHAR 0160
ENCODING 352
SWIDTH 560 0
DWIDTH 14 0
BBX 11 21 1 0
BITMAP
3180
3B80
0E00
0400
1F80
3FE0
7FC0
7040
F000
7000
7800
3F00
1F80
07C0
01E0
00E0
00E0
E0E0
FFE0
FFC0
3F00
ENDCHAR
STARTCHAR 0161
ENCODING 353
SWIDTH 400 0
DWIDTH 10 0
BBX 8 17 1 0
BITMAP
02
E7
7E
3C
00
00
3E
7F
E0
E0
FC
3F
0F
07
CF
FF
7C
ENDCHAR
STARTCHAR 0162
ENCODING 354
SWIDTH 520 0
DWIDTH 13 0
BBX 12 23 0 -6
BITMAP
FFF0
FFF0
FFF0
0E00
0E00
0E00
0E00
0E00
0E00
0E00
0E00
0E00
0E00
0E00
0E00
0E00
0E00
0600
0600
0780
0180
0F80
0F00
ENDCHAR
STARTCHAR 0163
ENCODING 355
SWIDTH 360 0
DWIDTH 9 0
BBX 8 21 0 -6
BITMAP
38
38
38
38
FF
FF
FF
38
38
38
38
38
3F
1F
1F
0C
0E
0F
03
1F
1E
ENDCHAR
STARTCHAR 0164
ENCODING 356
SWIDTH 520 0
DWIDTH 13 0
BBX 12 22 0 0
BITMAP
1080
3980
1F80
0600
0000
FFF0
FFF0
FFF0
0E00
0E00
0E00
0E00
0E00
0E00
0E00
0E00
0E00
0E00
0E00
0E00
0E00
0E00
ENDCHAR
STARTCHAR 0165
ENCODING 357
SWIDTH 360 0
DWIDTH 9 0
BBX 10 16 0 0
BITMAP
00C0
38C0
3840
3880
3800
FF00
FF00
FF00
3800
3800
3800
3800
3800
3E00
1F00
1F00
ENDCHAR
STARTCHAR 0166
ENCODING 358
SWIDTH 520 0
DWIDTH 13 0
BBX 12 17 0 0
BITMAP
FFF0
FFF0
FFF0
0E00
0E00
0E00
0E00
FFE0
FFE0
0E00
0E00
0E00
0E00
0E00
0E00
0E00
0E00
ENDCHAR
STARTCHAR 0167
ENCODING 359
SWIDTH 360 0
DWIDTH 9 0
BBX 8 15 0 0
BITMAP
38
38
38
38
FF
FF
FF
38
FF
38
38
38
3E
1F
1F
ENDCHAR
STARTCHAR 0168
ENCODING 360
SWIDTH 640 0
DWIDTH 16 0
BBX 13 21 1 0
BITMAP
1E60
1FC0
33C0
0000
E038
E038
E038
E038
E038
E038
E038
E038
E038
E038
E038
E038
F078
7870
7FF0
3FE0
0F80
ENDCHAR
STARTCHAR 0169
ENCODING 361
SWIDTH 520 0
DWIDTH 13 0
BBX 11 16 1 0
BITMAP
3CC0
3FC0
6380
0000
0000
E0E0
E0E0
E0E0
E0E0
E0E0
E0E0
E0E0
F1E0
7FC0
7FC0
1F00
ENDCHAR
STARTCHAR 016A
ENCODING 362
SWIDTH 640 0
DWIDTH 16 0
BBX 13 21 1 0
BITMAP
1FE0
1FE0
0000
0000
E038
E038
E038
E038
E038
E038
E038
E038
E038
E038
E038
E038
F078
7870
7FF0
3FE0
0F80
ENDCHAR
STARTCHAR 016B
ENCODING 363
SWIDTH 520 0
DWIDTH 13 0
BBX 11 16 1 0
BITMAP
7F80
7F80
0000
0000
0000
E0E0
E0E0
E0E0
E0E0
E0E0
E0E0
E0E0
F1E0
7FC0
7FC0
1F00
ENDCHAR
STARTCHAR 016C
ENCODING 364
SWIDTH 640 0
DWIDTH 16 0
BBX 13 21 1 0
BITMAP
18C0
1FC0
0F80
0000
E038
E038
E038
E038
E038
E038
E038
E038
E038
E038
E038
E038
F078
7870
7FF0
3FE0
0F80
ENDCHAR
STARTCHAR 016D
ENCODING 365
SWIDTH 520 0
DWIDTH 13 0
BBX 11 16 1 0
BITMAP
3180
7180
3F80
1E00
0000
E0E0
E0E0
E0E0
E0E0
E0E0
E0E0
E0E0
F1E0
7FC0
7FC0
1F00
ENDCHAR
STARTCHAR 016E
ENCODING 366
SWIDTH 640 0
DWIDTH 16 0
BBX 13 22 1 0
BITMAP
0780
0D80
0D80
0F80
0000
E038
E038
E038
E038
E038
E038
E038
E038
E038
E038
E038
E038
F078
7870
7FF0
3FE0
0F80
ENDCHAR
STARTCHAR 016F
ENCODING 367
SWIDTH 520 0
DWIDTH 13 0
BBX 11 17 1 0
BITMAP
0E00
1F00
3300
1F00
0E00
0000
E0E0
E0E0
E0E0
E0E0
E0E0
E0E0
E0E0
F1E0
7FC0
7FC0
1F00
ENDCHAR
STARTCHAR 0170
ENCODING 368
SWIDTH 640 0
DWIDTH 16 0
BBX 13 22 1 0
BITMAP
0440
0EE0
19C0
3100
0000
E038
E038
E038
E038
E038
E038
E038
E038
E038
E038
E038
E038
F078
7870
7FF0
3FE0
0F80
ENDCHAR
STARTCHAR 0171
ENCODING 369
SWIDTH 520 0
DWIDTH 13 0
BBX 11 17 1 1
BITMAP
0CC0
1DC0
3B80
2300
0000
0000
E0E0
E0E0
E0E0
E0E0
E0E0
E0E0
E0E0
F1E0
7FC0
7FC0
1F00
ENDCHAR
STARTCHAR 0172
ENCODING 370
SWIDTH 640 0
DWIDTH 16 0
BBX 13 23 1 -6
BITMAP
E038
E038
E038
E038
E038
E038
E038
E038
E038
E038
E038
E038
F078
7870
7FF0
3FE0
0F80
0200
0600
0400
0400
07C0
0780
ENDCHAR
STARTCHAR 0173
ENCODING 371
SWIDTH 520 0
DWIDTH 13 0
BBX 11 17 1 -6
BITMAP
E0E0
E0E0
E0E0
E0E0
E0E0
E0E0
E0E0
F1E0
7FC0
7FC0
1F00
0C00
0800
1800
1800
1F00
0E00
ENDCHAR
STARTCHAR 0174
ENCODING 372
SWIDTH 880 0
DWIDTH 22 0
BBX 21 22 0 1
BITMAP
007000
00FC00
01CE00
010400
000000
F07078
707070
707070
70F870
78F8F0
78F8F0
38D8E0
39DCE0
39DCE0
3DCCE0
1D8DE0
1F8FC0
1F8FC0
1F8FC0
1F07C0
0F0780
0F0780
ENDCHAR
STARTCHAR 0175
ENCODING 373
SWIDTH 720 0
DWIDTH 18 0
BBX 17 17 0 0
BITMAP
008000
01C000
03E000
077800
041000
000000
E1C380
F1C780
71C780
73E700
736700
3B7700
3F3E00
3E3E00
3E3E00
1E1E00
1C1C00
ENDCHAR
STARTCHAR 0176
ENCODING 374
SWIDTH 600 0
DWIDTH 15 0
BBX 14 22 0 1
BITMAP
0700
0FC0
1CE0
0840
0000
F03C
F038
7878
3870
3CF0
1CE0
1FE0
0FC0
0FC0
0780
0780
0700
0700
0700
0700
0700
0700
ENDCHAR
STARTCHAR 0177
ENCODING 375
SWIDTH 480 0
DWIDTH 12 0
BBX 12 22 0 -5
BITMAP
0F00
1F80
39C0
1080
0000
E070
70E0
70E0
70E0
39C0
39C0
3980
1F80
1F80
0F00
0F00
0E00
0E00
1E00
1C00
1C00
3800
ENDCHAR
STARTCHAR 0178
ENCODING 376
SWIDTH 600 0
DWIDTH 15 0
BBX 14 21 0 0
BITMAP
1CE0
1CE0
1CE0
0000
F03C
F038
7878
3870
3CF0
1CE0
1FE0
0FC0
0FC0
0780
0780
0700
0700
0700
0700
0700
0700
ENDCHAR
STARTCHAR 0179
ENCODING 377
SWIDTH 600 0
DWIDTH 15 0
BBX 13 22 1 0
BITMAP
0180
03C0
0700
0600
0000
FFF8
FFF0
FFF0
01E0
01E0
03C0
0380
0780
0F00
0F00
1E00
1C00
3C00
7800
7FF8
FFF8
FFF8
ENDCHAR
STARTCHAR 017A
ENCODING 378
SWIDTH 440 0
DWIDTH 11 0
BBX 10 17 0 0
BITMAP
0100
0380
0F00
0C00
0000
0000
7FC0
7FC0
0780
0700
0F00
0E00
1C00
3C00
3800
7FC0
FFC0
ENDCHAR
STARTCHAR 017B
ENCODING 379
SWIDTH 600 0
DWIDTH 15 0
BBX 13 21 1 0
BITMAP
0700
0700
0600
0000
FFF8
FFF0
FFF0
01E0
01E0
03C0
0380
0780
0F00
0F00
1E00
1C00
3C00
7800
7FF8
FFF8
FFF8
ENDCHAR
STARTCHAR 017C
ENCODING 380
SWIDTH 440 0
DWIDTH 11 0
BBX 10 16 0 0
BITMAP
0E00
0E00
0C00
0000
0000
7FC0
7FC0
0780
0700
0F00
0E00
1C00
3C00
3800
7FC0
FFC0
ENDCHAR
STARTCHAR 017D
ENCODING 381
SWIDTH 600 0
DWIDTH 15 0
BBX 13 21 1 1
BITMAP
19C0
0F80
0700
0000
FFF8
FFF0
FFF0
01E0
01E0
03C0
0380
0780
0F00
0F00
1E00
1C00
3C00
7800
7FF8
FFF8
FFF8
ENDCHAR
STARTCHAR 017E
ENCODING 382
SWIDTH 440 0
DWIDTH 11 0
BBX 10 17 0 0
BITMAP
2180
7B80
1F00
0E00
0000
0000
7FC0
7FC0
0780
0700
0F00
0E00
1C00
3C00
3800
7FC0
FFC0
ENDCHAR
STARTCHAR 018F
ENCODING 399
SWIDTH 680 0
DWIDTH 17 0
BBX 15 17 1 0
BITMAP
0FC0
3FF0
7FF8
703C
201C
001E
000E
000E
FFFE
FFFE
E00E
E00E
E01C
703C
7FF8
3FF0
0FC0
ENDCHAR
STARTCHAR 0192
ENCODING 402
SWIDTH 360 0
DWIDTH 9 0
BBX 13 24 -3 -6
BITMAP
00F8
01F8
03F0
0380
0380
0380
0380
0FE0
1FE0
1FE0
0700
0700
0700
0700
0F00
0F00
0E00
0E00
0E00
0E00
1E00
7C00
FC00
F000
ENDCHAR
STARTCHAR 01A0
ENCODING 416
SWIDTH 720 0
DWIDTH 18 0
BBX 17 18 1 0
BITMAP
000180
07E180
1FF980
3FFF80
7C3E00
F00E00
E00F00
E00700
E00700
E00700
E00700
E00700
E00F00
F00E00
783E00
3FFC00
1FF800
07E000
ENDCHAR
STARTCHAR 01A1
ENCODING 417
SWIDTH 520 0
DWIDTH 13 0
BBX 13 13 1 0
BITMAP
0030
0038
1F30
7FF0
FFC0
E1C0
E0E0
E0E0
E0E0
E1C0
FFC0
7F80
1F00
ENDCHAR
STARTCHAR 01AF
ENCODING 431
SWIDTH 760 0
DWIDTH 19 0
BBX 18 20 1 0
BITMAP
000180
0000C0
0001C0
E03F80
E03F00
E03800
E03800
E03800
E03800
E03800
E03800
E03800
E03800
E03800
E03800
F07800
787000
7FF000
3FE000
0F8000
ENDCHAR
STARTCHAR 01B0
ENCODING 432
SWIDTH 640 0
DWIDTH 16 0
BBX 16 14 1 0
BITMAP
0006
0007
0006
E0FE
E0FC
E0E0
E0E0
E0E0
E0E0
E0E0
F1E0
7FC0
7FC0
1F00
ENDCHAR
STARTCHAR 01C4
ENCODING 452
SWIDTH 1200 0
DWIDTH 30 0
BBX 28 23 1 0
BITMAP
00002180
00007B80
00001F00
00000C00
00000000
00000000
FF01FFF0
FFC1FFE0
FFE1FFE0
E1E003C0
E0F00380
E0700780
E0700F00
E0700F00
E0701E00
E0701C00
E0703C00
E0707800
E0F07000
E1E0F000
FFE1FFF0
FFC1FFF0
FF03FFF0
ENDCHAR
STARTCHAR 01C5
ENCODING 453
SWIDTH 1040 0
DWIDTH 26 0
BBX 24 17 1 0
BITMAP
FF0086
FFC1CE
FFE0FC
E1E038
E0F000
E07000
E071FF
E071FE
E0701E
E0703C
E07038
E07078
E0F070
E1E0E0
FFE1E0
FFC1FF
FF03FF
ENDCHAR
STARTCHAR 01C6
ENCODING 454
SWIDTH 1000 0
DWIDTH 25 0
BBX 23 18 1 0
BITMAP
00E000
00E10C
00E3DC
00E0F8
00E060
00E000
00E000
3EE7FE
7FE7FC
FFE03C
E0E078
E0E070
E0E0F0
E0E1E0
E0E1C0
FFE3C0
7FE3FE
3EE7FE
ENDCHAR
STARTCHAR 01C7
ENCODING 455
SWIDTH 880 0
DWIDTH 22 0
BBX 19 17 1 0
BITMAP
E000E0
E000E0
E000E0
E000E0
E000E0
E000E0
E000E0
E000E0
E000E0
E000E0
E000E0
E000E0
E000E0
E011E0
FFDFE0
FFDFC0
FFCF80
ENDCHAR
STARTCHAR 01C8
ENCODING 456
SWIDTH 720 0
DWIDTH 18 0
BBX 16 23 1 -6
BITMAP
E006
E00F
E00F
E006
E000
E000
E00F
E00F
E00F
E00F
E00F
E00F
E00F
E00F
FFCF
FFCF
FFCF
000F
000F
000F
003E
003E
003C
ENDCHAR
STARTCHAR 01C9
ENCODING 457
SWIDTH 480 0
DWIDTH 12 0
BBX 10 24 1 -6
BITMAP
E000
E180
E3C0
E3C0
E180
E000
E000
E3C0
E3C0
E3C0
E3C0
E3C0
E3C0
E3C0
E3C0
E3C0
E3C0
E3C0
03C0
03C0
03C0
0F80
0F80
1F00
ENDCHAR
STARTCHAR 01CA
ENCODING 458
SWIDTH 1120 0
DWIDTH 28 0
BBX 25 17 1 0
BITMAP
F80E0380
F80E0380
FC0E0380
FC0E0380
EE0E0380
EE0E0380
E70E0380
E70E0380
E38E0380
E38E0380
E1CE0380
E0EE0380
E0EE0380
E07E4780
E07E7F80
E03EFF00
E03E3E00
ENDCHAR
STARTCHAR 01CB
ENCODING 459
SWIDTH 960 0
DWIDTH 24 0
BBX 22 23 1 -6
BITMAP
F80E18
F80E3C
FC0E3C
FC0E18
EE0E00
EE0E00
E70E38
E70E38
E38E38
E1CE38
E1CE38
E0EE38
E0EE38
E07E38
E07E38
E03E38
E03E38
000038
000038
000038
0000F8
0001F8
0001F0
ENDCHAR
STARTCHAR 01CC
ENCODING 460
SWIDTH 800 0
DWIDTH 20 0
BBX 17 23 1 -6
BITMAP
000380
000380
000380
000100
000000
000000
E78380
FFC380
F9E380
F0E380
E0E380
E0E380
E0E380
E0E380
E0E380
E0E380
E0E380
000380
000380
000380
000F80
001F00
001E00
ENDCHAR
STARTCHAR 01CE
ENCODING 462
SWIDTH 560 0
DWIDTH 14 0
BBX 11 17 1 0
BITMAP
1080
39C0
1F80
0F00
0000
0000
3EE0
7FE0
FFE0
E1E0
E0E0
E0E0
E0E0
E1E0
FFE0
7FE0
3EE0
ENDCHAR
STARTCHAR 01D0
ENCODING 464
SWIDTH 200 0
DWIDTH 5 0
BBX 8 17 -1 0
BITMAP
C2
EF
7C
38
00
00
38
38
38
38
38
38
38
38
38
38
38
ENDCHAR
STARTCHAR 01D2
ENCODING 466
SWIDTH 520 0
DWIDTH 13 0
BBX 11 17 1 0
BITMAP
2080
7380
3F00
0E00
0400
0000
1F00
7F80
FFC0
E1C0
E0E0
E0E0
E0E0
E1C0
FFC0
7F80
1F00
ENDCHAR
STARTCHAR 01D4
ENCODING 468
SWIDTH 520 0
DWIDTH 13 0
BBX 11 17 1 0
BITMAP
3080
3BC0
1F00
0E00
0000
0000
E0E0
E0E0
E0E0
E0E0
E0E0
E0E0
E0E0
F1E0
7FC0
7FC0
1F00
ENDCHAR
STARTCHAR 01D6
ENCODING 470
SWIDTH 520 0
DWIDTH 13 0
BBX 11 20 1 0
BITMAP
3FC0
3FC0
0000
0000
3180
3BC0
3980
0000
0000
E0E0
E0E0
E0E0
E0E0
E0E0
E0E0
E0E0
F1E0
7FC0
7FC0
1F00
ENDCHAR
STARTCHAR 01D8
ENCODING 472
SWIDTH 520 0
DWIDTH 13 0
BBX 11 22 1 0
BITMAP
0300
0700
0E00
1800
0000
0000
3180
3BC0
3980
0000
0000
E0E0
E0E0
E0E0
E0E0
E0E0
E0E0
E0E0
F1E0
7FC0
7FC0
1F00
ENDCHAR
STARTCHAR 01DA
ENCODING 474
SWIDTH 520 0
DWIDTH 13 0
BBX 11 22 1 0
BITMAP
3080
3BC0
1F00
0E00
0000
0000
3180
3BC0
3980
0000
0000
E0E0
E0E0
E0E0
E0E0
E0E0
E0E0
E0E0
F1E0
7FC0
7FC0
1F00
ENDCHAR
STARTCHAR 01DC
ENCODING 476
SWIDTH 520 0
DWIDTH 13 0
BBX 11 22 1 0
BITMAP
0800
1E00
0F00
0300
0000
0000
3180
3BC0
3980
0000
0000
E0E0
E0E0
E0E0
E0E0
E0E0
E0E0
E0E0
F1E0
7FC0
7FC0
1F00
ENDCHAR
STARTCHAR 01E6
ENCODING 486
SWIDTH 720 0
DWIDTH 18 0
BBX 16 21 1 0
BITMAP
0460
07E0
03C0
0000
07E0
1FF8
3FFC
7C3E
F008
F000
E000
E000
E0FF
E0FF
E007
F00F
F00E
7C3E
3FFC
1FF8
07E0
ENDCHAR
STARTCHAR 01E7
ENCODING 487
SWIDTH 560 0
DWIDTH 14 0
BBX 11 23 1 -6
BITMAP
1080
39C0
1F80
0F00
0000
0000
3EE0
7FE0
FFE0
E1E0
E0E0
E0E0
E0E0
E1E0
FFE0
7FE0
3EE0
00E0
00E0
61E0
FFC0
FFC0
3F00
ENDCHAR
STARTCHAR 01EA
ENCODING 490
SWIDTH 720 0
DWIDTH 18 0
BBX 16 23 1 -6
BITMAP
07E0
1FF8
3FFC
7C3E
F00E
E00F
E007
E007
E007
E007
E007
E00F
F00E
783E
3FFC
1FF8
07E0
0080
0180
0180
0180
01F0
00E0
ENDCHAR
STARTCHAR 01EB
ENCODING 491
SWIDTH 520 0
DWIDTH 13 0
BBX 11 17 1 -6
BITMAP
1F00
7F80
FFC0
E1C0
E0E0
E0E0
E0E0
E1C0
FFC0
7F80
1F00
0300
0600
0600
0600
07C0
0380
ENDCHAR
STARTCHAR 01FA
ENCODING 506
SWIDTH 640 0
DWIDTH 16 0
BBX 16 27 0 1
BITMAP
00E0
01E0
0380
0100
0000
03C0
0660
0660
03C0
0000
03C0
03C0
07C0
07E0
07E0
0E70
0E70
0E70
1C38
1C38
3FF8
3FFC
3FFC
701E
700E
700E
F00F
ENDCHAR
STARTCHAR 01FB
ENCODING 507
SWIDTH 560 0
DWIDTH 14 0
BBX 11 23 1 0
BITMAP
0300
0780
0E00
1C00
0000
0000
0E00
1F00
1980
1F00
0F00
0000
3EE0
7FE0
FFE0
E1E0
E0E0
E0E0
E0E0
E1E0
FFE0
7FE0
3EE0
ENDCHAR
STARTCHAR 01FC
ENCODING 508
SWIDTH 840 0
DWIDTH 21 0
BBX 20 23 0 0
BITMAP
000180
0003C0
000700
000600
000000
000000
007FF0
00FFF0
00FFF0
01F800
03F800
03B800
07B800
073FF0
0F3FF0
0E3FF0
1E3800
1FF800
3FF800
383800
783FF0
703FF0
F03FF0
ENDCHAR
STARTCHAR 01FD
ENCODING 509
SWIDTH 760 0
DWIDTH 19 0
BBX 17 17 1 0
BITMAP
004000
00E000
01E000
038000
000000
000000
7C3E00
FF7F00
67E380
03C380
19FF80
7FFF80
E3C000
C3C000
E3E700
FFFF80
3C3E00
ENDCHAR
STARTCHAR 01FE
ENCODING 510
SWIDTH 720 0
DWIDTH 18 0
BBX 17 23 0 0
BITMAP
002000
00F000
01E000
038000
010000
000000
03F080
0FFD80
1FFF00
3E1F00
780F00
701F80
703380
706380
70C380
718380
730380
760780
7C0700
3E1F00
3FFE00
6FFC00
C3F000
ENDCHAR
STARTCHAR 01FF
ENCODING 511
SWIDTH 520 0
DWIDTH 13 0
BBX 11 17 1 0
BITMAP
0200
0700
0E00
1C00
1000
0000
1F60
7FC0
FFC0
E3C0
E6E0
ECE0
F8E0
F1C0
FFC0
FF80
9F00
ENDCHAR
STARTCHAR 0200
ENCODING 512
SWIDTH 640 0
DWIDTH 16 0
BBX 16 22 0 0
BITMAP
0840
1CE0
0F78
0318
0000
03C0
03C0
07C0
07E0
07E0
0E70
0E70
0E70
1C38
1C38
3FF8
3FFC
3FFC
701E
700E
700E
F00F
ENDCHAR
STARTCHAR 0201
ENCODING 513
SWIDTH 560 0
DWIDTH 14 0
BBX 11 17 1 0
BITMAP
2100
7380
7BC0
1CE0
0000
0000
3EE0
7FE0
FFE0
E1E0
E0E0
E0E0
E0E0
E1E0
FFE0
7FE0
3EE0
ENDCHAR
STARTCHAR 0202
ENCODING 514
SWIDTH 640 0
DWIDTH 16 0
BBX 16 22 0 0
BITMAP
0180
07E0
0E60
0C30
0000
03C0
03C0
07C0
07E0
07E0
0E70
0E70
0E70
1C38
1C38
3FF8
3FFC
3FFC
701E
700E
700E
F00F
ENDCHAR
STARTCHAR 0203
ENCODING 515
SWIDTH 560 0
DWIDTH 14 0
BBX 11 16 1 0
BITMAP
0F00
3F80
31C0
30C0
0000
3EE0
7FE0
FFE0
E1E0
E0E0
E0E0
E0E0
E1E0
FFE0
7FE0
3EE0
ENDCHAR
STARTCHAR 0204
ENCODING 516
SWIDTH 520 0
DWIDTH 13 0
BBX 10 22 1 0
BITMAP
4200
F780
7BC0
18C0
0000
FFC0
FFC0
FFC0
E000
E000
E000
E000
FFC0
FFC0
FFC0
E000
E000
E000
E000
FFC0
FFC0
FFC0
ENDCHAR
STARTCHAR 0205
ENCODING 517
SWIDTH 480 0
DWIDTH 12 0
BBX 10 17 1 0
BITMAP
4200
E700
7380
39C0
0840
0000
3E00
7F80
F3C0
E1C0
FFC0
FFC0
E000
E080
F380
7FC0
1F00
ENDCHAR
STARTCHAR 0206
ENCODING 518
SWIDTH 520 0
DWIDTH 13 0
BBX 10 22 1 0
BITMAP
0C00
3F00
7380
6180
0000
FFC0
FFC0
FFC0
E000
E000
E000
E000
FFC0
FFC0
FFC0
E000
E000
E000
E000
FFC0
FFC0
FFC0
ENDCHAR
STARTCHAR 0207
ENCODING 519
SWIDTH 480 0
DWIDTH 12 0
BBX 10 16 1 0
BITMAP
1E00
3F00
7380
6180
0000
3E00
7F80
F3C0
E1C0
FFC0
FFC0
E000
E080
F380
7FC0
1F00
ENDCHAR
STARTCHAR 0208
ENCODING 520
SWIDTH 240 0
DWIDTH 6 0
BBX 10 22 -2 0
BITMAP
C600
E700
7BC0
18C0
0000
1C00
1C00
1C00
1C00
1C00
1C00
1C00
1C00
1C00
1C00
1C00
1C00
1C00
1C00
1C00
1C00
1C00
ENDCHAR
STARTCHAR 0209
ENCODING 521
SWIDTH 200 0
DWIDTH 5 0
BBX 10 17 -2 0
BITMAP
8600
E700
F780
39C0
0000
0000
1C00
1C00
1C00
1C00
1C00
1C00
1C00
1C00
1C00
1C00
1C00
ENDCHAR
STARTCHAR 020A
ENCODING 522
SWIDTH 240 0
DWIDTH 6 0
BBX 8 22 -1 0
BITMAP
18
7E
E6
C3
00
38
38
38
38
38
38
38
38
38
38
38
38
38
38
38
38
38
ENDCHAR
STARTCHAR 020B
ENCODING 523
SWIDTH 200 0
DWIDTH 5 0
BBX 8 16 -2 0
BITMAP
3E
7F
E3
43
00
1C
1C
1C
1C
1C
1C
1C
1C
1C
1C
1C
ENDCHAR
STARTCHAR 020C
ENCODING 524
SWIDTH 720 0
DWIDTH 18 0
BBX 16 22 1 0
BITMAP
0840
1CE0
0E70
0738
0000
07E0
1FF8
3FFC
7C3E
F00E
E00F
E007
E007
E007
E007
E007
E00F
F00E
783E
3FFC
1FF8
07E0
ENDCHAR
STARTCHAR 020D
ENCODING 525
SWIDTH 520 0
DWIDTH 13 0
BBX 11 17 1 0
BITMAP
4200
E700
7BC0
18C0
0840
0000
1F00
7F80
FFC0
E1C0
E0E0
E0E0
E0E0
E1C0
FFC0
7F80
1F00
ENDCHAR
STARTCHAR 020E
ENCODING 526
SWIDTH 720 0
DWIDTH 18 0
BBX 16 22 1 0
BITMAP
03C0
0FE0
0E70
0C30
0000
07E0
1FF8
3FFC
7C3E
F00E
E00F
E007
E007
E007
E007
E007
E00F
F00E
783E
3FFC
1FF8
07E0
ENDCHAR
STARTCHAR 020F
ENCODING 527
SWIDTH 520 0
DWIDTH 13 0
BBX 11 16 1 0
BITMAP
1E00
3F80
7380
6180
0000
1F00
7F80
FFC0
E1C0
E0E0
E0E0
E0E0
E1C0
FFC0
7F80
1F00
ENDCHAR
STARTCHAR 0210
ENCODING 528
SWIDTH 560 0
DWIDTH 14 0
BBX 12 22 1 0
BITMAP
6300
F380
39C0
0C60
0000
FF80
FFC0
E7E0
E0E0
E0E0
E0E0
E0E0
E1E0
FFC0
FF80
E700
E380
E380
E1C0
E1E0
E0E0
E0F0
ENDCHAR
STARTCHAR 0211
ENCODING 529
SWIDTH 360 0
DWIDTH 9 0
BBX 10 17 0 0
BITMAP
4200
E700
7380
39C0
0000
0000
7780
7F80
7F80
7800
7000
7000
7000
7000
7000
7000
7000
ENDCHAR
STARTCHAR 0212
ENCODING 530
SWIDTH 560 0
DWIDTH 14 0
BBX 12 22 1 0
BITMAP
0600
1F80
3980
3180
0000
FF80
FFC0
E7E0
E0E0
E0E0
E0E0
E0E0
E1E0
FFC0
FF80
E700
E380
E380
E1C0
E1E0
E0E0
E0F0
ENDCHAR
STARTCHAR 0213
ENCODING 531
SWIDTH 360 0
DWIDTH 9 0
BBX 8 16 1 0
BITMAP
3C
FE
C7
C2
00
EF
FF
FF
F0
E0
E0
E0
E0
E0
E0
E0
ENDCHAR
STARTCHAR 0214
ENCODING 532
SWIDTH 640 0
DWIDTH 16 0
BBX 13 22 1 0
BITMAP
3180
7BC0
1CE0
0C30
0000
E038
E038
E038
E038
E038
E038
E038
E038
E038
E038
E038
E038
F078
7870
7FF0
3FE0
0F80
ENDCHAR
STARTCHAR 0215
ENCODING 533
SWIDTH 520 0
DWIDTH 13 0
BBX 11 17 1 0
BITMAP
6100
7380
7BC0
1CE0
0000
0000
E0E0
E0E0
E0E0
E0E0
E0E0
E0E0
E0E0
F1E0
7FC0
7FC0
1F00
ENDCHAR
STARTCHAR 0216
ENCODING 534
SWIDTH 640 0
DWIDTH 16 0
BBX 13 22 1 0
BITMAP
0700
0FC0
18C0
18C0
0000
E038
E038
E038
E038
E038
E038
E038
E038
E038
E038
E038
E038
F078
7870
7FF0
3FE0
0F80
ENDCHAR
STARTCHAR 0217
ENCODING 535
SWIDTH 520 0
DWIDTH 13 0
BBX 11 16 1 0
BITMAP
1F00
3F80
71C0
2180
0000
E0E0
E0E0
E0E0
E0E0
E0E0
E0E0
E0E0
F1E0
7FC0
7FC0
1F00
ENDCHAR
STARTCHAR 0218
ENCODING 536
SWIDTH 560 0
DWIDTH 14 0
BBX 11 23 1 -7
BITMAP
1F80
3FE0
7FC0
7040
F000
7000
7800
3F00
1F80
07C0
01E0
00E0
00E0
E0E0
FFE0
FFC0
3F00
0000
0E00
0E00
0E00
0600
0C00
ENDCHAR
STARTCHAR 0219
ENCODING 537
SWIDTH 400 0
DWIDTH 10 0
BBX 8 17 1 -7
BITMAP
3E
7F
E0
E0
FC
3F
0F
07
CF
FF
7C
00
18
3C
1C
08
18
ENDCHAR
STARTCHAR 021A
ENCODING 538
SWIDTH 520 0
DWIDTH 13 0
BBX 12 24 0 -7
BITMAP
FFF0
FFF0
FFF0
0E00
0E00
0E00
0E00
0E00
0E00
0E00
0E00
0E00
0E00
0E00
0E00
0E00
0E00
0000
0600
0F00
0F00
0200
0600
0400
ENDCHAR
STARTCHAR 021B
ENCODING 539
SWIDTH 360 0
DWIDTH 9 0
BBX 8 22 0 -7
BITMAP
38
38
38
38
FF
FF
FF
38
38
38
38
38
3E
1F
1F
00
0E
0E
0E
04
0C
08
ENDCHAR
STARTCHAR 022A
ENCODING 554
SWIDTH 720 0
DWIDTH 18 0
BBX 16 25 1 0
BITMAP
0FF0
0FF0
0000
0000
0E70
0E70
0E70
0000
07E0
1FF8
3FFC
7C3E
F00E
E00F
E007
E007
E007
E007
E007
E00F
F00E
783E
3FFC
1FF8
07E0
ENDCHAR
STARTCHAR 022B
ENCODING 555
SWIDTH 520 0
DWIDTH 13 0
BBX 11 20 1 0
BITMAP
7F80
7F80
0000
0000
0000
7380
7380
3180
0000
1F00
7F80
FFC0
E1C0
E0E0
E0E0
E0E0
E1C0
FFC0
7F80
1F00
ENDCHAR
STARTCHAR 022C
ENCODING 556
SWIDTH 720 0
DWIDTH 18 0
BBX 16 27 1 0
BITMAP
0FF0
0FF0
0000
0000
0000
0730
0FF0
0CE0
0000
0000
07E0
1FF8
3FFC
7C3E
F00E
E00F
E007
E007
E007
E007
E007
E00F
F00E
783E
3FFC
1FF8
07E0
ENDCHAR
STARTCHAR 022D
ENCODING 557
SWIDTH 520 0
DWIDTH 13 0
BBX 11 21 1 0
BITMAP
7F80
7F80
0000
0000
0000
38C0
7F80
6780
0000
0000
1F00
7F80
FFC0
E1C0
E0E0
E0E0
E0E0
E1C0
FFC0
7F80
1F00
ENDCHAR
STARTCHAR 0230
ENCODING 560
SWIDTH 720 0
DWIDTH 18 0
BBX 16 25 1 0
BITMAP
0FF0
0FF0
0000
0000
0180
03C0
0380
0000
07E0
1FF8
3FFC
7C3E
F00E
E00F
E007
E007
E007
E007
E007
E00F
F00E
783E
3FFC
1FF8
07E0
ENDCHAR
STARTCHAR 0231
ENCODING 561
SWIDTH 520 0
DWIDTH 13 0
BBX 11 21 1 0
BITMAP
7F80
7F80
0000
0000
0000
0C00
0E00
0E00
0000
0000
1F00
7F80
FFC0
E1C0
E0E0
E0E0
E0E0
E1C0
FFC0
7F80
1F00
ENDCHAR
STARTCHAR 0232
ENCODING 562
SWIDTH 600 0
DWIDTH 15 0
BBX 14 21 0 0
BITMAP
1FE0
1FE0
0000
0000
F03C
F038
7878
3870
3CF0
1CE0
1FE0
0FC0
0FC0
0780
0780
0700
0700
0700
0700
0700
0700
ENDCHAR
STARTCHAR 0233
ENCODING 563
SWIDTH 480 0
DWIDTH 12 0
BBX 12 22 0 -6
BITMAP
3FC0
3FC0
0000
0000
0000
E070
70E0
70E0
70E0
39C0
39C0
3980
1F80
1F80
0F00
0F00
0E00
0E00
1E00
1C00
1C00
3800
ENDCHAR
STARTCHAR 0237
ENCODING 567
SWIDTH 240 0
DWIDTH 6 0
BBX 6 17 -1 -6
BITMAP
1C
1C
1C
1C
1C
1C
1C
1C
1C
1C
1C
1C
1C
3C
F8
F8
F0
ENDCHAR
STARTCHAR 0259
ENCODING 601
SWIDTH 480 0
DWIDTH 12 0
BBX 11 11 1 0
BITMAP
3F00
FF80
73C0
01C0
00E0
FFE0
FFE0
E1C0
73C0
7F80
1F00
ENDCHAR
STARTCHAR 02BC
ENCODING 700
SWIDTH 400 0
DWIDTH 10 0
BBX 3 7 1 10
BITMAP
60
E0
E0
E0
60
40
40
ENDCHAR
STARTCHAR 02C6
ENCODING 710
SWIDTH 480 0
DWIDTH 12 0
BBX 8 4 2 12
BITMAP
18
3C
7E
E7
ENDCHAR
STARTCHAR 02C7
ENCODING 711
SWIDTH 480 0
DWIDTH 12 0
BBX 8 4 2 13
BITMAP
E7
7E
3C
18
ENDCHAR
STARTCHAR 02C9
ENCODING 713
SWIDTH 480 0
DWIDTH 12 0
BBX 8 2 2 13
BITMAP
FF
FF
ENDCHAR
STARTCHAR 02D8
ENCODING 728
SWIDTH 520 0
DWIDTH 13 0
BBX 8 4 2 13
BITMAP
C3
E7
7F
3C
ENDCHAR
STARTCHAR 02D9
ENCODING 729
SWIDTH 280 0
DWIDTH 7 0
BBX 3 3 2 12
BITMAP
E0
E0
E0
ENDCHAR
STARTCHAR 02DA
ENCODING 730
SWIDTH 400 0
DWIDTH 10 0
BBX 6 6 2 12
BITMAP
70
F8
CC
CC
F8
20
ENDCHAR
STARTCHAR 02DB
ENCODING 731
SWIDTH 360 0
DWIDTH 9 0
BBX 5 6 2 -5
BITMAP
40
C0
80
80
F8
F0
ENDCHAR
STARTCHAR 02DC
ENCODING 732
SWIDTH 520 0
DWIDTH 13 0
BBX 8 3 2 12
BITMAP
71
FF
FE
ENDCHAR
STARTCHAR 02DD
ENCODING 733
SWIDTH 520 0
DWIDTH 13 0
BBX 9 5 2 12
BITMAP
1100
3B80
7300
E600
4400
ENDCHAR
STARTCHAR 0300
ENCODING 768
SWIDTH 0 0
DWIDTH 0 0
BBX 5 4 2 12
BITMAP
40
E0
F0
38
ENDCHAR
STARTCHAR 0301
ENCODING 769
SWIDTH 0 0
DWIDTH 0 0
BBX 5 5 3 12
BITMAP
08
38
78
E0
40
ENDCHAR
STARTCHAR 0302
ENCODING 770
SWIDTH 0 0
DWIDTH 0 0
BBX 8 4 2 12
BITMAP
18
3C
7F
E3
ENDCHAR
STARTCHAR 0303
ENCODING 771
SWIDTH 0 0
DWIDTH 0 0
BBX 9 3 2 12
BITMAP
7180
FF00
FF00
ENDCHAR
STARTCHAR 0304
ENCODING 772
SWIDTH 0 0
DWIDTH 0 0
BBX 8 2 2 13
BITMAP
FF
FF
ENDCHAR
STARTCHAR 0306
ENCODING 774
SWIDTH 0 0
DWIDTH 0 0
BBX 8 4 2 13
BITMAP
C3
E3
7F
3C
ENDCHAR
STARTCHAR 0307
ENCODING 775
SWIDTH 0 0
DWIDTH 0 0
BBX 3 3 2 12
BITMAP
E0
E0
E0
ENDCHAR
STARTCHAR 0308
ENCODING 776
SWIDTH 0 0
DWIDTH 0 0
BBX 8 3 2 12
BITMAP
E7
E7
E7
ENDCHAR
STARTCHAR 0309
ENCODING 777
SWIDTH 0 0
DWIDTH 0 0
BBX 6 6 4 11
BITMAP
F8
FC
0C
0C
38
30
ENDCHAR
STARTCHAR 030A
ENCODING 778
SWIDTH 0 0
DWIDTH 0 0
BBX 6 5 2 12
BITMAP
78
FC
CC
CC
78
ENDCHAR
STARTCHAR 030B
ENCODING 779
SWIDTH 0 0
DWIDTH 0 0
BBX 8 5 3 12
BITMAP
22
73
67
CC
88
ENDCHAR
STARTCHAR 030C
ENCODING 780
SWIDTH 0 0
DWIDTH 0 0
BBX 8 4 2 13
BITMAP
E3
7F
3C
18
ENDCHAR
STARTCHAR 030F
ENCODING 783
SWIDTH 0 0
DWIDTH 0 0
BBX 10 4 2 12
BITMAP
4200
E700
F780
39C0
ENDCHAR
STARTCHAR 0311
ENCODING 785
SWIDTH 0 0
DWIDTH 0 0
BBX 8 4 2 11
BITMAP
3C
7F
E7
43
ENDCHAR
STARTCHAR 0312
ENCODING 786
SWIDTH 0 0
DWIDTH 0 0
BBX 3 5 1 12
BITMAP
20
40
40
E0
60
ENDCHAR
STARTCHAR 031B
ENCODING 795
SWIDTH 0 0
DWIDTH 0 0
BBX 5 5 5 11
BITMAP
30
38
30
F0
40
ENDCHAR
STARTCHAR 0323
ENCODING 803
SWIDTH 0 0
DWIDTH 0 0
BBX 3 3 2 -4
BITMAP
60
E0
60
ENDCHAR
STARTCHAR 0324
ENCODING 804
SWIDTH 0 0
DWIDTH 0 0
BBX 8 3 2 -4
BITMAP
E7
E7
E6
ENDCHAR
STARTCHAR 0326
ENCODING 806
SWIDTH 0 0
DWIDTH 0 0
BBX 3 5 2 -7
BITMAP
E0
E0
E0
60
C0
ENDCHAR
STARTCHAR 0327
ENCODING 807
SWIDTH 0 0
DWIDTH 0 0
BBX 5 6 3 -6
BITMAP
60
40
70
18
F8
F0
ENDCHAR
STARTCHAR 0328
ENCODING 808
SWIDTH 0 0
DWIDTH 0 0
BBX 5 6 2 -5
BITMAP
60
C0
C0
C0
F8
70
ENDCHAR
STARTCHAR 032E
ENCODING 814
SWIDTH 0 0
DWIDTH 0 0
BBX 8 4 2 -5
BITMAP
C3
E7
7E
3C
ENDCHAR
STARTCHAR 0331
ENCODING 817
SWIDTH 0 0
DWIDTH 0 0
BBX 8 2 2 -3
BITMAP
FF
FF
ENDCHAR
STARTCHAR 1E80
ENCODING 7808
SWIDTH 880 0
DWIDTH 22 0
BBX 21 22 0 0
BITMAP
00C000
01E000
00F000
003000
000000
F07078
707070
707070
70F870
78F8F0
78F8F0
38D8E0
39DCE0
39DCE0
3DCCE0
1D8DE0
1F8FC0
1F8FC0
1F8FC0
1F07C0
0F0780
0F0780
ENDCHAR
STARTCHAR 1E81
ENCODING 7809
SWIDTH 720 0
DWIDTH 18 0
BBX 17 17 0 0
BITMAP
010000
038000
01E000
006000
000000
000000
E1C380
F1C780
71C780
73E700
736700
3B7700
3F3E00
3E3E00
3E3E00
1E1E00
1C1C00
ENDCHAR
STARTCHAR 1E82
ENCODING 7810
SWIDTH 880 0
DWIDTH 22 0
BBX 21 22 0 0
BITMAP
000800
003C00
007800
006000
000000
F07078
707070
707070
70F870
78F8F0
78F8F0
38D8E0
39DCE0
39DCE0
3DCCE0
1D8DE0
1F8FC0
1F8FC0
1F8FC0
1F07C0
0F0780
0F0780
ENDCHAR
STARTCHAR 1E83
ENCODING 7811
SWIDTH 720 0
DWIDTH 18 0
BBX 17 17 0 0
BITMAP
004000
00E000
01C000
038000
000000
000000
E1C380
F1C780
71C780
73E700
736700
3B7700
3F3E00
3E3E00
3E3E00
1E1E00
1C1C00
ENDCHAR
STARTCHAR 1E84
ENCODING 7812
SWIDTH 880 0
DWIDTH 22 0
BBX 21 21 0 0
BITMAP
01CE00
01CE00
018C00
000000
F07078
707070
707070
70F870
78F8F0
78F8F0
38D8E0
39DCE0
39DCE0
3DCCE0
1D8DE0
1F8FC0
1F8FC0
1F8FC0
1F07C0
0F0780
0F0780
ENDCHAR
STARTCHAR 1E85
ENCODING 7813
SWIDTH 720 0
DWIDTH 18 0
BBX 17 16 0 0
BITMAP
063000
073800
073800
000000
000000
E1C380
F1C780
71C780
73E700
736700
3B7700
3F3E00
3E3E00
3E3E00
1E1E00
1C1C00
ENDCHAR
STARTCHAR 1E9E
ENCODING 7838
SWIDTH 640 0
DWIDTH 16 0
BBX 14 17 1 0
BITMAP
0FE0
3FF0
7FF0
F0F0
F1E0
E1C0
E380
E3E0
E3F8
E078
E038
E03C
E03C
E038
E7F8
E7F0
E7E0
ENDCHAR
STARTCHAR 1EA0
ENCODING 7840
SWIDTH 640 0
DWIDTH 16 0
BBX 16 20 0 -4
BITMAP
03C0
03C0
07C0
07E0
07E0
0E70
0E70
0E70
1C38
1C38
3FF8
3FFC
3FFC
701E
700E
700E
F00F
0000
0180
0180
ENDCHAR
STARTCHAR 1EA1
ENCODING 7841
SWIDTH 560 0
DWIDTH 14 0
BBX 11 15 1 -4
BITMAP
3EE0
7FE0
FFE0
E1E0
E0E0
E0E0
E0E0
E1E0
FFE0
7FE0
3EE0
0000
0600
0E00
0400
ENDCHAR
STARTCHAR 1EA2
ENCODING 7842
SWIDTH 640 0
DWIDTH 16 0
BBX 16 23 0 0
BITMAP
07C0
07E0
0060
00C0
0180
0000
03C0
03C0
07C0
07E0
07E0
0E70
0E70
0E70
1C38
1C38
3FF8
3FFC
3FFC
701E
700E
700E
F00F
ENDCHAR
STARTCHAR 1EA3
ENCODING 7843
SWIDTH 560 0
DWIDTH 14 0
BBX 11 17 1 0
BITMAP
1E00
1F00
0300
0300
0700
0400
3EE0
7FE0
FFE0
E1E0
E0E0
E0E0
E0E0
E1E0
FFE0
7FE0
3EE0
ENDCHAR
STARTCHAR 1EA4
ENCODING 7844
SWIDTH 640 0
DWIDTH 16 0
BBX 16 26 0 0
BITMAP
0004
000E
001C
0038
0180
07E0
0E70
0420
0000
03C0
03C0
07C0
07E0
07E0
0E70
0E70
0E70
1C38
1C38
3FF8
3FFC
3FFC
701E
700E
700E
F00F
ENDCHAR
STARTCHAR 1EA5
ENCODING 7845
SWIDTH 560 0
DWIDTH 14 0
BBX 11 22 1 1
BITMAP
0300
0700
1E00
0800
0000
0000
0600
1F00
3BC0
3080
0000
3EE0
7FE0
FFE0
E1E0
E0E0
E0E0
E0E0
E1E0
FFE0
7FE0
3EE0
ENDCHAR
STARTCHAR 1EA6
ENCODING 7846
SWIDTH 640 0
DWIDTH 16 0
BBX 16 25 0 1
BITMAP
0070
0078
001C
0188
07E0
0E70
0420
0000
03C0
03C0
07C0
07E0
07E0
0E70
0E70
0E70
1C38
1C38
3FF8
3FFC
3FFC
701E
700E
700E
F00F
ENDCHAR
STARTCHAR 1EA7
ENCODING 7847
SWIDTH 560 0
DWIDTH 14 0
BBX 11 22 1 1
BITMAP
0C00
1E00
0700
0100
0000
0000
0600
1F00
3BC0
3080
0000
3EE0
7FE0
FFE0
E1E0
E0E0
E0E0
E0E0
E1E0
FFE0
7FE0
3EE0
ENDCHAR
STARTCHAR 1EA8
ENCODING 7848
SWIDTH 640 0
DWIDTH 16 0
BBX 16 28 0 0
BITMAP
0070
00F8
0018
0018
0018
0030
0180
07E0
0E70
0420
0000
03C0
03C0
07C0
07E0
07E0
0E70
0E70
0E70
1C38
1C38
3FF8
3FFC
3FFC
701E
700E
700E
F00F
ENDCHAR
STARTCHAR 1EA9
ENCODING 7849
SWIDTH 560 0
DWIDTH 14 0
BBX 11 23 1 0
BITMAP
0E00
1F00
0300
0300
0700
0600
0000
0600
1F00
3BC0
3180
0000
3EE0
7FE0
FFE0
E1E0
E0E0
E0E0
E0E0
E1E0
FFE0
7FE0
3EE0
ENDCHAR
STARTCHAR 1EAA
ENCODING 7850
SWIDTH 640 0
DWIDTH 16 0
BBX 16 26 0 0
BITMAP
0730
0FF0
0CE0
0000
0180
07C0
0EF0
0C20
0000
03C0
03C0
07C0
07E0
07E0
0E70
0E70
0E70
1C38
1C38
3FF8
3FFC
3FFC
701E
700E
700E
F00F
ENDCHAR
STARTCHAR 1EAB
ENCODING 7851
SWIDTH 560 0
DWIDTH 14 0
BBX 11 22 1 0
BITMAP
1CC0
3FC0
3780
0000
0000
0000
0E00
1F00
3BC0
3080
0000
3EE0
7FE0
FFE0
E1E0
E0E0
E0E0
E0E0
E1E0
FFE0
7FE0
3EE0
ENDCHAR
STARTCHAR 1EAC
ENCODING 7852
SWIDTH 640 0
DWIDTH 16 0
BBX 16 25 0 -3
BITMAP
0380
07E0
0E70
0420
0000
03C0
03C0
07C0
07E0
07E0
0E70
0E70
0E70
1C38
1C38
3FF8
3FFC
3FFC
701E
700E
700E
F00F
0000
0180
0180
ENDCHAR
STARTCHAR 1EAD
ENCODING 7853
SWIDTH 560 0
DWIDTH 14 0
BBX 11 20 1 -4
BITMAP
0600
1F00
3BC0
3080
0000
3EE0
7FE0
FFE0
E1E0
E0E0
E0E0
E0E0
E1E0
FFE0
7FE0
3EE0
0000
0600
0E00
0400
ENDCHAR
STARTCHAR 1EAE
ENCODING 7854
SWIDTH 640 0
DWIDTH 16 0
BBX 16 27 0 0
BITMAP
0040
00E0
01E0
0380
0000
0000
0C70
07E0
03C0
0000
03C0
03C0
07C0
07E0
07E0
0E70
0E70
0E70
1C38
1C38
3FF8
3FFC
3FFC
701E
700E
700E
F00F
ENDCHAR
STARTCHAR 1EAF
ENCODING 7855
SWIDTH 560 0
DWIDTH 14 0
BBX 11 22 1 0
BITMAP
0300
0700
0E00
1C00
0000
0000
3080
31C0
3F80
1F00
0000
3EE0
7FE0
FFE0
E1E0
E0E0
E0E0
E0E0
E1E0
FFE0
7FE0
3EE0
ENDCHAR
STARTCHAR 1EB0
ENCODING 7856
SWIDTH 640 0
DWIDTH 16 0
BBX 16 27 0 0
BITMAP
0400
0600
0780
03C0
0080
0000
0C70
07E0
03C0
0000
03C0
03C0
07C0
07E0
07E0
0E70
0E70
0E70
1C38
1C38
3FF8
3FFC
3FFC
701E
700E
700E
F00F
ENDCHAR
STARTCHAR 1EB1
ENCODING 7857
SWIDTH 560 0
DWIDTH 14 0
BBX 11 22 1 0
BITMAP
0C00
1E00
0F00
0300
0000
0000
3080
31C0
3F80
1F00
0000
3EE0
7FE0
FFE0
E1E0
E0E0
E0E0
E0E0
E1E0
FFE0
7FE0
3EE0
ENDCHAR
STARTCHAR 1EB2
ENCODING 7858
SWIDTH 640 0
DWIDTH 16 0
BBX 16 27 0 0
BITMAP
07C0
0060
0060
01C0
0100
0000
0C70
07E0
03C0
0000
03C0
03C0
07C0
07E0
07E0
0E70
0E70
0E70
1C38
1C38
3FF8
3FFC
3FFC
701E
700E
700E
F00F
ENDCHAR
STARTCHAR 1EB3
ENCODING 7859
SWIDTH 560 0
DWIDTH 14 0
BBX 11 22 1 0
BITMAP
1E00
1F00
0300
0300
0700
0400
1080
31C0
3F80
1F00
0000
3EE0
7FE0
FFE0
E1E0
E0E0
E0E0
E0E0
E1E0
FFE0
7FE0
3EE0
ENDCHAR
STARTCHAR 1EB4
ENCODING 7860
SWIDTH 640 0
DWIDTH 16 0
BBX 16 25 0 0
BITMAP
0730
0FF0
0CE0
0000
0C30
07E0
03C0
0000
03C0
03C0
07C0
07E0
07E0
0E70
0E70
0E70
1C38
1C38
3FF8
3FFC
3FFC
701E
700E
700E
F00F
ENDCHAR
STARTCHAR 1EB5
ENCODING 7861
SWIDTH 560 0
DWIDTH 14 0
BBX 11 21 1 0
BITMAP
1CC0
3FC0
3380
0000
0000
3080
31C0
3F80
1F00
0000
3EE0
7FE0
FFE0
E1E0
E0E0
E0E0
E0E0
E1E0
FFE0
7FE0
3EE0
ENDCHAR
STARTCHAR 1EB6
ENCODING 7862
SWIDTH 640 0
DWIDTH 16 0
BBX 16 24 0 -4
BITMAP
0C70
07E0
03C0
0000
03C0
03C0
07C0
07E0
07E0
0E70
0E70
0E70
1C38
1C38
3FF8
3FFC
3FFC
701E
700E
700E
F00F
0000
0180
0180
ENDCHAR
STARTCHAR 1EB7
ENCODING 7863
SWIDTH 560 0
DWIDTH 14 0
BBX 11 20 1 -4
BITMAP
3080
31C0
3F80
1F00
0000
3EE0
7FE0
FFE0
E1E0
E0E0
E0E0
E0E0
E1E0
FFE0
7FE0
3EE0
0000
0600
0E00
0400
ENDCHAR
STARTCHAR 1EB8
ENCODING 7864
SWIDTH 520 0
DWIDTH 13 0
BBX 10 21 1 -4
BITMAP
FFC0
FFC0
FFC0
E000
E000
E000
E000
FFC0
FFC0
FFC0
E000
E000
E000
E000
FFC0
FFC0
FFC0
0000
0C00
1C00
0800
ENDCHAR
STARTCHAR 1EB9
ENCODING 7865
SWIDTH 480 0
DWIDTH 12 0
BBX 10 15 1 -4
BITMAP
3E00
7F80
F3C0
E1C0
FFC0
FFC0
E000
E080
F380
7FC0
1F00
0000
0C00
0C00
0C00
ENDCHAR
STARTCHAR 1EBA
ENCODING 7866
SWIDTH 520 0
DWIDTH 13 0
BBX 10 23 1 0
BITMAP
3E00
3F00
0300
0600
0C00
0000
FFC0
FFC0
FFC0
E000
E000
E000
E000
FFC0
FFC0
FFC0
E000
E000
E000
E000
FFC0
FFC0
FFC0
ENDCHAR
STARTCHAR 1EBB
ENCODING 7867
SWIDTH 480 0
DWIDTH 12 0
BBX 10 17 1 0
BITMAP
3E00
3F00
0300
0700
0E00
0800
3E00
7F80
F3C0
E1C0
FFC0
FFC0
E000
E080
F380
7FC0
1F00
ENDCHAR
STARTCHAR 1EBC
ENCODING 7868
SWIDTH 520 0
DWIDTH 13 0
BBX 10 21 1 0
BITMAP
3D80
7F80
6700
0000
FFC0
FFC0
FFC0
E000
E000
E000
E000
FFC0
FFC0
FFC0
E000
E000
E000
E000
FFC0
FFC0
FFC0
ENDCHAR
STARTCHAR 1EBD
ENCODING 7869
SWIDTH 480 0
DWIDTH 12 0
BBX 10 16 1 0
BITMAP
3880
7F80
6700
0000
0000
3E00
7F80
F3C0
E1C0
FFC0
FFC0
E000
E080
F380
7FC0
1F00
ENDCHAR
STARTCHAR 1EBE
ENCODING 7870
SWIDTH 520 0
DWIDTH 13 0
BBX 12 26 1 0
BITMAP
0030
0070
00F0
01C0
0E00
3F00
7380
2100
0000
FFC0
FFC0
FFC0
E000
E000
E000
E000
FFC0
FFC0
FFC0
E000
E000
E000
E000
FFC0
FFC0
FFC0
ENDCHAR
STARTCHAR 1EBF
ENCODING 7871
SWIDTH 480 0
DWIDTH 12 0
BBX 10 22 1 1
BITMAP
0600
0F00
1C00
1000
0000
0000
0C00
1E00
7F80
6180
0000
3E00
7F80
F3C0
E1C0
FFC0
FFC0
E000
E080
F380
7FC0
1F00
ENDCHAR
STARTCHAR 1EC0
ENCODING 7872
SWIDTH 520 0
DWIDTH 13 0
BBX 11 26 1 0
BITMAP
0100
0380
03C0
00E0
0C00
3F00
7380
2180
0000
FFC0
FFC0
FFC0
E000
E000
E000
E000
FFC0
FFC0
FFC0
E000
E000
E000
E000
FFC0
FFC0
FFC0
ENDCHAR
STARTCHAR 1EC1
ENCODING 7873
SWIDTH 480 0
DWIDTH 12 0
BBX 10 22 1 1
BITMAP
1800
1E00
0F00
0200
0000
0000
0C00
1E00
7F80
6180
0000
3E00
7F80
F3C0
E1C0
FFC0
FFC0
E000
E080
F380
7FC0
1F00
ENDCHAR
STARTCHAR 1EC2
ENCODING 7874
SWIDTH 520 0
DWIDTH 13 0
BBX 11 28 1 0
BITMAP
0380
07C0
0060
0060
00C0
0180
0E00
3F00
7380
2180
0000
FFC0
FFC0
FFC0
E000
E000
E000
E000
FFC0
FFC0
FFC0
E000
E000
E000
E000
FFC0
FFC0
FFC0
ENDCHAR
STARTCHAR 1EC3
ENCODING 7875
SWIDTH 480 0
DWIDTH 12 0
BBX 10 23 1 0
BITMAP
1C00
3E00
0300
0300
0600
0C00
0000
0C00
1E00
7F80
6180
0000
3E00
7F80
F3C0
E1C0
FFC0
FFC0
E000
E080
F380
7FC0
1F00
ENDCHAR
STARTCHAR 1EC4
ENCODING 7876
SWIDTH 520 0
DWIDTH 13 0
BBX 10 26 1 0
BITMAP
3D80
7F80
6700
0000
0C00
1F00
7B80
2180
0000
FFC0
FFC0
FFC0
E000
E000
E000
E000
FFC0
FFC0
FFC0
E000
E000
E000
E000
FFC0
FFC0
FFC0
ENDCHAR
STARTCHAR 1EC5
ENCODING 7877
SWIDTH 480 0
DWIDTH 12 0
BBX 10 22 1 0
BITMAP
3880
7F80
6700
0000
0000
0000
0C00
3F00
7380
6180
0000
3E00
7F80
F3C0
E1C0
FFC0
FFC0
E000
E080
F380
7FC0
1F00
ENDCHAR
STARTCHAR 1EC6
ENCODING 7878
SWIDTH 520 0
DWIDTH 13 0
BBX 10 26 1 -3
BITMAP
0E00
3F00
7380
2100
0000
FFC0
FFC0
FFC0
E000
E000
E000
E000
FFC0
FFC0
FFC0
E000
E000
E000
E000
FFC0
FFC0
FFC0
0000
0C00
1C00
0800
ENDCHAR
STARTCHAR 1EC7
ENCODING 7879
SWIDTH 480 0
DWIDTH 12 0
BBX 10 20 1 -4
BITMAP
0C00
1E00
7F80
6180
0000
3E00
7F80
F3C0
E1C0
FFC0
FFC0
E000
E080
F380
7FC0
1F00
0000
0C00
0C00
0C00
ENDCHAR
STARTCHAR 1EC8
ENCODING 7880
SWIDTH 240 0
DWIDTH 6 0
BBX 6 23 0 0
BITMAP
F8
F8
0C
18
30
00
70
70
70
70
70
70
70
70
70
70
70
70
70
70
70
70
70
ENDCHAR
STARTCHAR 1EC9
ENCODING 7881
SWIDTH 200 0
DWIDTH 5 0
BBX 5 17 0 0
BITMAP
F0
F8
18
18
70
00
70
70
70
70
70
70
70
70
70
70
70
ENDCHAR
STARTCHAR 1ECA
ENCODING 7882
SWIDTH 240 0
DWIDTH 6 0
BBX 3 21 1 -4
BITMAP
E0
E0
E0
E0
E0
E0
E0
E0
E0
E0
E0
E0
E0
E0
E0
E0
E0
00
60
60
40
ENDCHAR
STARTCHAR 1ECB
ENCODING 7883
SWIDTH 240 0
DWIDTH 6 0
BBX 4 21 1 -4
BITMAP
60
F0
F0
60
00
00
E0
E0
E0
E0
E0
E0
E0
E0
E0
E0
E0
00
60
60
60
ENDCHAR
STARTCHAR 1ECC
ENCODING 7884
SWIDTH 720 0
DWIDTH 18 0
BBX 16 24 1 -7
BITMAP
07E0
1FF8
3FFC
7C3E
F00E
E00F
E007
E007
E007
E007
E007
E00F
F00E
783E
3FFC
1FF8
07E0
0000
0000
0000
0000
0180
0180
0100
ENDCHAR
STARTCHAR 1ECD
ENCODING 7885
SWIDTH 520 0
DWIDTH 13 0
BBX 11 17 1 -6
BITMAP
1F00
7F80
FFC0
E1C0
E0E0
E0E0
E0E0
E1C0
FFC0
7F80
1F00
0000
0000
0000
0C00
0E00
0C00
ENDCHAR
STARTCHAR 1ECE
ENCODING 7886
SWIDTH 720 0
DWIDTH 18 0
BBX 16 23 1 0
BITMAP
07C0
07E0
0060
00C0
0180
0000
07E0
1FF8
3FFC
7C3E
F00E
E00F
E007
E007
E007
E007
E007
E00F
F00E
783E
3FFC
1FF8
07E0
ENDCHAR
STARTCHAR 1ECF
ENCODING 7887
SWIDTH 520 0
DWIDTH 13 0
BBX 11 17 1 0
BITMAP
1E00
3F00
0300
0300
0E00
0000
1F00
7F80
FFC0
E1C0
E0E0
E0E0
E0E0
E1C0
FFC0
7F80
1F00
ENDCHAR
STARTCHAR 1ED0
ENCODING 7888
SWIDTH 720 0
DWIDTH 18 0
BBX 16 26 1 0
BITMAP
0004
000E
001E
0038
0180
07C0
0FF0
0C30
0000
07E0
1FF8
3FFC
7C3E
F00E
E00F
E007
E007
E007
E007
E007
E00F
F00E
783E
3FFC
1FF8
07E0
ENDCHAR
STARTCHAR 1ED1
ENCODING 7889
SWIDTH 520 0
DWIDTH 13 0
BBX 11 23 1 0
BITMAP
0200
0600
0F00
1C00
1000
0000
0000
0C00
1F00
7B80
2180
0000
1F00
7F80
FFC0
E1C0
E0E0
E0E0
E0E0
E1C0
FFC0
7F80
1F00
ENDCHAR
STARTCHAR 1ED2
ENCODING 7890
SWIDTH 720 0
DWIDTH 18 0
BBX 16 25 1 1
BITMAP
0060
00F0
003C
0188
03C0
0FF0
0C30
0000
07E0
1FF8
3FFC
7C3E
F00E
E00F
E007
E007
E007
E007
E007
E00F
F00E
783E
3FFC
1FF8
07E0
ENDCHAR
STARTCHAR 1ED3
ENCODING 7891
SWIDTH 520 0
DWIDTH 13 0
BBX 11 22 1 1
BITMAP
1C00
1E00
0700
0300
0000
0000
0C00
1F00
7B80
2180
0000
1F00
7F80
FFC0
E1C0
E0E0
E0E0
E0E0
E1C0
FFC0
7F80
1F00
ENDCHAR
STARTCHAR 1ED4
ENCODING 7892
SWIDTH 720 0
DWIDTH 18 0
BBX 16 27 1 0
BITMAP
00F0
00F8
0018
0018
0038
01A0
03C0
0FE0
0C30
0000
07E0
1FF8
3FFC
7C3E
F00E
E00F
E007
E007
E007
E007
E007
E00F
F00E
783E
3FFC
1FF8
07E0
ENDCHAR
STARTCHAR 1ED5
ENCODING 7893
SWIDTH 520 0
DWIDTH 13 0
BBX 11 23 1 0
BITMAP
1C00
3F00
2300
0300
0600
0C00
0000
0C00
1F00
7B80
2180
0000
1F00
7F80
FFC0
E1C0
E0E0
E0E0
E0E0
E1C0
FFC0
7F80
1F00
ENDCHAR
STARTCHAR 1ED6
ENCODING 7894
SWIDTH 720 0
DWIDTH 18 0
BBX 16 26 1 0
BITMAP
0730
0FF0
0DE0
0000
0180
03C0
0FF0
0C70
0000
07E0
1FF8
3FFC
7C3E
F00E
E00F
E007
E007
E007
E007
E007
E00F
F00E
783E
3FFC
1FF8
07E0
ENDCHAR
STARTCHAR 1ED7
ENCODING 7895
SWIDTH 520 0
DWIDTH 13 0
BBX 11 22 1 0
BITMAP
38C0
7F80
6780
0000
0000
0000
0E00
3F00
7B80
2180
0000
1F00
7F80
FFC0
E1C0
E0E0
E0E0
E0E0
E1C0
FFC0
7F80
1F00
ENDCHAR
STARTCHAR 1ED8
ENCODING 7896
SWIDTH 720 0
DWIDTH 18 0
BBX 16 29 1 -7
BITMAP
0180
07C0
0EF0
0C20
0000
07E0
1FF8
3FFC
7C3E
F00E
E00F
E007
E007
E007
E007
E007
E00F
F00E
783E
3FFC
1FF8
07E0
0000
0000
0000
0000
0180
0180
0100
ENDCHAR
STARTCHAR 1ED9
ENCODING 7897
SWIDTH 520 0
DWIDTH 13 0
BBX 11 22 1 -6
BITMAP
0C00
1F00
7B80
2180
0000
1F00
7F80
FFC0
E1C0
E0E0
E0E0
E0E0
E1C0
FFC0
7F80
1F00
0000
0000
0000
0C00
0E00
0C00
ENDCHAR
STARTCHAR 1EDA
ENCODING 7898
SWIDTH 720 0
DWIDTH 18 0
BBX 17 23 1 0
BITMAP
004000
01E000
03C000
070000
020000
000180
07E180
1FF980
3FFF80
7C3E00
F00E00
E00F00
E00700
E00700
E00700
E00700
E00700
E00F00
F00E00
783E00
3FFC00
1FF800
07E000
ENDCHAR
STARTCHAR 1EDB
ENCODING 7899
SWIDTH 520 0
DWIDTH 13 0
BBX 13 17 1 0
BITMAP
0200
0700
0E00
1C00
1030
0038
1F30
7FF0
FFC0
E1C0
E0E0
E0E0
E0E0
E1C0
FFC0
7F80
1F00
ENDCHAR
STARTCHAR 1EDC
ENCODING 7900
SWIDTH 720 0
DWIDTH 18 0
BBX 17 23 1 0
BITMAP
030000
038000
03C000
00E000
000000
000180
07E180
1FF980
3FFF80
7C3E00
F00E00
E00F00
E00700
E00700
E00700
E00700
E00700
E00F00
F00E00
783E00
3FFC00
1FF800
07E000
ENDCHAR
STARTCHAR 1EDD
ENCODING 7901
SWIDTH 520 0
DWIDTH 13 0
BBX 13 17 1 0
BITMAP
0800
1C00
1E00
0700
0030
0038
1F30
7FF0
FFC0
E1C0
E0E0
E0E0
E0E0
E1C0
FFC0
7F80
1F00
ENDCHAR
STARTCHAR 1EDE
ENCODING 7902
SWIDTH 720 0
DWIDTH 18 0
BBX 17 23 1 0
BITMAP
07C000
07C000
006000
00C000
01C000
010180
07E180
1FF980
3FFF80
7C3E00
F00E00
E00F00
E00700
E00700
E00700
E00700
E00700
E00F00
F00E00
783E00
3FFC00
1FF800
07E000
ENDCHAR
STARTCHAR 1EDF
ENCODING 7903
SWIDTH 520 0
DWIDTH 13 0
BBX 13 17 1 0
BITMAP
1E00
3F00
0300
0300
0E30
0038
1F30
7FF0
FFC0
E1C0
E0E0
E0E0
E0E0
E1C0
FFC0
7F80
1F00
ENDCHAR
STARTCHAR 1EE0
ENCODING 7904
SWIDTH 720 0
DWIDTH 18 0
BBX 17 22 1 0
BITMAP
073000
0FF000
0CE000
000000
000180
07E180
1FF980
3FFF80
7C3E00
F00E00
E00F00
E00700
E00700
E00700
E00700
E00700
E00F00
F00E00
783E00
3FFC00
1FF800
07E000
ENDCHAR
STARTCHAR 1EE1
ENCODING 7905
SWIDTH 520 0
DWIDTH 13 0
BBX 13 16 1 0
BITMAP
38C0
7F80
6780
0030
0038
1F30
7FF0
FFC0
E1C0
E0E0
E0E0
E0E0
E1C0
FFC0
7F80
1F00
ENDCHAR
STARTCHAR 1EE2
ENCODING 7906
SWIDTH 720 0
DWIDTH 18 0
BBX 17 24 1 -6
BITMAP
000180
07E180
1FF980
3FFF80
7C3E00
F00E00
E00F00
E00700
E00700
E00700
E00700
E00700
E00F00
F00E00
783E00
3FFC00
1FF800
07E000
000000
000000
000000
018000
038000
018000
ENDCHAR
STARTCHAR 1EE3
ENCODING 7907
SWIDTH 520 0
DWIDTH 13 0
BBX 13 19 1 -6
BITMAP
0030
0038
1F30
7FF0
FFC0
E1C0
E0E0
E0E0
E0E0
E1C0
FFC0
7F80
1F00
0000
0000
0000
0C00
0E00
0C00
ENDCHAR
STARTCHAR 1EE4
ENCODING 7908
SWIDTH 640 0
DWIDTH 16 0
BBX 13 21 1 -4
BITMAP
E038
E038
E038
E038
E038
E038
E038
E038
E038
E038
E038
E038
F078
7870
7FF0
3FE0
0F80
0000
0300
0700
0200
ENDCHAR
STARTCHAR 1EE5
ENCODING 7909
SWIDTH 520 0
DWIDTH 13 0
BBX 11 15 1 -4
BITMAP
E0E0
E0E0
E0E0
E0E0
E0E0
E0E0
E0E0
F1E0
7FC0
7FC0
1F00
0000
0C00
0E00
0400
ENDCHAR
STARTCHAR 1EE6
ENCODING 7910
SWIDTH 640 0
DWIDTH 16 0
BBX 13 23 1 0
BITMAP
0F00
0F80
0180
0180
0300
0000
E038
E038
E038
E038
E038
E038
E038
E038
E038
E038
E038
E038
F078
7870
7FF0
3FE0
0F80
ENDCHAR
STARTCHAR 1EE7
ENCODING 7911
SWIDTH 520 0
DWIDTH 13 0
BBX 11 17 1 0
BITMAP
1E00
1F00
0300
0300
0E00
0000
E0E0
E0E0
E0E0
E0E0
E0E0
E0E0
E0E0
F1E0
7FC0
7FC0
1F00
ENDCHAR
STARTCHAR 1EE8
ENCODING 7912
SWIDTH 760 0
DWIDTH 19 0
BBX 18 23 1 0
BITMAP
018000
038000
070000
0C0180
0000C0
0001C0
E03F80
E03F00
E03800
E03800
E03800
E03800
E03800
E03800
E03800
E03800
E03800
E03800
F07800
787000
7FF000
3FE000
0F8000
ENDCHAR
STARTCHAR 1EE9
ENCODING 7913
SWIDTH 640 0
DWIDTH 16 0
BBX 16 17 1 0
BITMAP
0200
0700
0E00
1C06
0007
0006
E0FE
E0FC
E0E0
E0E0
E0E0
E0E0
E0E0
F1E0
7FC0
7FC0
1F00
ENDCHAR
STARTCHAR 1EEA
ENCODING 7914
SWIDTH 760 0
DWIDTH 19 0
BBX 18 23 1 0
BITMAP
060000
0F0000
078000
018180
0000C0
0001C0
E03F80
E03F00
E03800
E03800
E03800
E03800
E03800
E03800
E03800
E03800
E03800
E03800
F07800
787000
7FF000
3FE000
0F8000
ENDCHAR
STARTCHAR 1EEB
ENCODING 7915
SWIDTH 640 0
DWIDTH 16 0
BBX 16 17 1 0
BITMAP
0800
1C00
0F00
0306
0007
0006
E0FE
E0FC
E0E0
E0E0
E0E0
E0E0
E0E0
F1E0
7FC0
7FC0
1F00
ENDCHAR
STARTCHAR 1EEC
ENCODING 7916
SWIDTH 760 0
DWIDTH 19 0
BBX 18 24 1 0
BITMAP
070000
0F8000
018000
018000
0181C0
0300C0
0001C0
E03F80
E03F00
E03800
E03800
E03800
E03800
E03800
E03800
E03800
E03800
E03800
E03800
F07800
787000
7FF000
3FE000
0F8000
ENDCHAR
STARTCHAR 1EED
ENCODING 7917
SWIDTH 640 0
DWIDTH 16 0
BBX 15 17 1 0
BITMAP
1E00
1F00
0300
0300
0E06
0006
E0FE
E0FC
E0E0
E0E0
E0E0
E0E0
E0E0
F1E0
7FC0
7FC0
1F00
ENDCHAR
STARTCHAR 1EEE
ENCODING 7918
SWIDTH 760 0
DWIDTH 19 0
BBX 18 22 1 0
BITMAP
0E6000
1FE000
31C180
0000C0
0001C0
E03F80
E03F00
E03800
E03800
E03800
E03800
E03800
E03800
E03800
E03800
E03800
E03800
F07800
787000
7FF000
3FE000
0F8000
ENDCHAR
STARTCHAR 1EEF
ENCODING 7919
SWIDTH 640 0
DWIDTH 16 0
BBX 15 16 1 0
BITMAP
3CC0
3FC0
6386
0006
0006
E0FE
E0FC
E0E0
E0E0
E0E0
E0E0
E0E0
F1E0
7FC0
7FC0
1F00
ENDCHAR
STARTCHAR 1EF0
ENCODING 7920
SWIDTH 760 0
DWIDTH 19 0
BBX 18 24 1 -4
BITMAP
000180
0000C0
0001C0
E03F80
E03F00
E03800
E03800
E03800
E03800
E03800
E03800
E03800
E03800
E03800
E03800
F07800
787000
7FF000
3FE000
0F8000
000000
030000
070000
020000
ENDCHAR
STARTCHAR 1EF1
ENCODING 7921
SWIDTH 640 0
DWIDTH 16 0
BBX 16 18 1 -4
BITMAP
0006
0007
0006
E0FE
E0FC
E0E0
E0E0
E0E0
E0E0
E0E0
F1E0
7FC0
7FC0
1F00
0000
0C00
0E00
0400
ENDCHAR
STARTCHAR 1EF2
ENCODING 7922
SWIDTH 600 0
DWIDTH 15 0
BBX 14 22 0 0
BITMAP
0C00
1E00
0700
0300
0000
F03C
F038
7878
3870
3CF0
1CE0
1FE0
0FC0
0FC0
0780
0780
0700
0700
0700
0700
0700
0700
ENDCHAR
STARTCHAR 1EF3
ENCODING 7923
SWIDTH 480 0
DWIDTH 12 0
BBX 12 23 0 -6
BITMAP
0400
0E00
0F00
0380
0000
0000
E070
70E0
70E0
70E0
39C0
39C0
3980
1F80
1F80
0F00
0F00
0E00
0E00
1E00
1C00
1C00
3800
ENDCHAR
STARTCHAR 1EF4
ENCODING 7924
SWIDTH 600 0
DWIDTH 15 0
BBX 14 21 0 -4
BITMAP
F03C
F038
7878
3870
3CF0
1CE0
1FE0
0FC0
0FC0
0780
0780
0700
0700
0700
0700
0700
0700
0000
0300
0300
0200
ENDCHAR
STARTCHAR 1EF5
ENCODING 7925
SWIDTH 480 0
DWIDTH 12 0
BBX 12 17 0 -6
BITMAP
E070
70E0
70E0
70E0
39C0
39C0
3980
1F80
1F80
0F00
0F00
0E00
0E00
1E00
1E00
1C00
3800
ENDCHAR
STARTCHAR 1EF6
ENCODING 7926
SWIDTH 600 0
DWIDTH 15 0
BBX 14 23 0 0
BITMAP
0F80
0FC0
00C0
0180
0300
0000
F03C
F038
7878
3870
3CF0
1CE0
1FE0
0FC0
0FC0
0780
0780
0700
0700
0700
0700
0700
0700
ENDCHAR
STARTCHAR 1EF7
ENCODING 7927
SWIDTH 480 0
DWIDTH 12 0
BBX 12 23 0 -6
BITMAP
1F00
1F80
0180
0300
0700
0000
E070
70E0
70E0
70E0
39C0
39C0
3980
1F80
1F80
0F00
0F00
0E00
0E00
1E00
1C00
1C00
3800
ENDCHAR
STARTCHAR 1EF8
ENCODING 7928
SWIDTH 600 0
DWIDTH 15 0
BBX 14 21 0 0
BITMAP
0E60
1FE0
19C0
0000
F03C
F038
7878
3870
3CF0
1CE0
1FE0
0FC0
0FC0
0780
0780
0700
0700
0700
0700
0700
0700
ENDCHAR
STARTCHAR 1EF9
ENCODING 7929
SWIDTH 480 0
DWIDTH 12 0
BBX 12 22 0 -6
BITMAP
1EC0
3FC0
3380
0000
0000
E070
70E0
70E0
70E0
39C0
39C0
3980
1F80
1F80
0F00
0F00
0E00
0E00
1E00
1C00
1C00
3800
ENDCHAR
STARTCHAR 2013
ENCODING 8211
SWIDTH 440 0
DWIDTH 11 0
BBX 11 3 0 4
BITMAP
FFE0
FFE0
FFE0
ENDCHAR
STARTCHAR 2014
ENCODING 8212
SWIDTH 840 0
DWIDTH 21 0
BBX 21 3 0 4
BITMAP
FFFFF8
FFFFF8
FFFFF8
ENDCHAR
STARTCHAR 2018
ENCODING 8216
SWIDTH 240 0
DWIDTH 6 0
BBX 4 7 1 10
BITMAP
20
60
C0
F0
F0
F0
60
ENDCHAR
STARTCHAR 2019
ENCODING 8217
SWIDTH 240 0
DWIDTH 6 0
BBX 5 6 0 10
BITMAP
70
F8
F8
78
10
30
ENDCHAR
STARTCHAR 201A
ENCODING 8218
SWIDTH 240 0
DWIDTH 6 0
BBX 4 7 1 -3
BITMAP
60
F0
F0
70
30
60
C0
ENDCHAR
STARTCHAR 201C
ENCODING 8220
SWIDTH 480 0
DWIDTH 12 0
BBX 9 7 2 10
BITMAP
2100
C300
8600
E780
F780
F780
E300
ENDCHAR
STARTCHAR 201D
ENCODING 8221
SWIDTH 480 0
DWIDTH 12 0
BBX 10 7 1 10
BITMAP
6380
F780
F7C0
F3C0
3080
6180
4000
ENDCHAR
STARTCHAR 201E
ENCODING 8222
SWIDTH 440 0
DWIDTH 11 0
BBX 9 7 1 -3
BITMAP
7380
F780
F780
7380
3180
6100
C200
ENDCHAR
STARTCHAR 2020
ENCODING 8224
SWIDTH 440 0
DWIDTH 11 0
BBX 8 21 1 -3
BITMAP
18
18
18
18
18
FF
FF
FF
18
18
18
18
18
18
18
18
18
18
18
18
18
ENDCHAR
STARTCHAR 2021
ENCODING 8225
SWIDTH 440 0
DWIDTH 11 0
BBX 8 21 1 -3
BITMAP
1C
1C
1C
1C
1C
FF
FF
FF
1C
1C
1C
FF
FF
FF
1C
1C
1C
1C
1C
1C
1C
ENDCHAR
STARTCHAR 2022
ENCODING 8226
SWIDTH 560 0
DWIDTH 14 0
BBX 7 7 3 4
BITMAP
38
7C
FE
FE
FE
7C
38
ENDCHAR
STARTCHAR 2026
ENCODING 8230
SWIDTH 800 0
DWIDTH 20 0
BBX 18 4 1 0
BITMAP
70C380
F1E3C0
F1E3C0
70C380
ENDCHAR
STARTCHAR 2030
ENCODING 8240
SWIDTH 1040 0
DWIDTH 26 0
BBX 25 17 0 0
BITMAP
1E000000
3F801000
31803000
7180E000
7183C000
31870000
3F9C0000
0E380000
00E00000
03DC0E00
077E3F00
1C673180
38E37180
E0C37180
40E33180
007F3F80
003C1E00
ENDCHAR
STARTCHAR 2039
ENCODING 8249
SWIDTH 320 0
DWIDTH 8 0
BBX 5 10 1 1
BITMAP
10
38
30
60
C0
E0
60
30
18
10
ENDCHAR
STARTCHAR 203A
ENCODING 8250
SWIDTH 320 0
DWIDTH 8 0
BBX 5 10 1 1
BITMAP
40
E0
70
30
18
38
30
60
E0
40
ENDCHAR
STARTCHAR 2044
ENCODING 8260
SWIDTH 200 0
DWIDTH 5 0
BBX 11 17 -3 0
BITMAP
0060
0040
00C0
0180
0180
0300
0300
0600
0600
0C00
1800
1800
3000
3000
6000
6000
C000
ENDCHAR
STARTCHAR 2074
ENCODING 8308
SWIDTH 240 0
DWIDTH 6 0
BBX 5 6 0 11
BITMAP
30
30
50
50
F8
10
ENDCHAR
STARTCHAR 20A1
ENCODING 8353
SWIDTH 560 0
DWIDTH 14 0
BBX 13 20 1 -2
BITMAP
0068
07F8
1FF8
3FF0
79B0
F360
E360
E360
E6C0
E6C0
ED80
ED80
FD80
FB00
7F10
3FF0
3FF0
3FE0
6C00
6C00
ENDCHAR
STARTCHAR 20A3
ENCODING 8355
SWIDTH 480 0
DWIDTH 12 0
BBX 10 17 0 0
BITMAP
7FC0
7FC0
7FC0
7000
7000
7000
7000
7FC0
7FC0
7FC0
7000
7000
FF00
FF00
7000
7000
7000
ENDCHAR
STARTCHAR 20A4
ENCODING 8356
SWIDTH 600 0
DWIDTH 15 0
BBX 13 17 1 0
BITMAP
0F80
1FE0
3FF0
7870
7040
7000
7000
3800
FF80
1C00
FF80
1C00
1C00
1C20
7F78
E7F0
C1E0
ENDCHAR
STARTCHAR 20A6
ENCODING 8358
SWIDTH 720 0
DWIDTH 18 0
BBX 17 17 0 0
BITMAP
7C0700
7C0700
7E0700
7E0700
770700
738700
738700
FFFF80
FFFF80
70E700
70E700
707700
707700
703F00
703F00
701F00
701F00
ENDCHAR
STARTCHAR 20A7
ENCODING 8359
SWIDTH 520 0
DWIDTH 13 0
BBX 13 17 0 0
BITMAP
7F80
7FE0
73F0
70F0
FFF8
FFF8
7070
70F0
7FE0
7FC0
7E00
7000
7000
7000
7000
7000
7000
ENDCHAR
STARTCHAR 20A9
ENCODING 8361
SWIDTH 880 0
DWIDTH 22 0
BBX 21 17 0 0
BITMAP
F07078
707070
707070
78F870
78F8F0
38D8E0
38DCE0
FFFFF8
FFFFF8
3D8DE0
1D8FC0
1F8FC0
1F8FC0
1F87C0
1F07C0
0F0780
0F0780
ENDCHAR
STARTCHAR 20AB
ENCODING 8363
SWIDTH 560 0
DWIDTH 14 0
BBX 13 21 1 -3
BITMAP
00E0
00E0
07F8
07F8
00E0
00E0
00E0
3EE0
7FE0
FFE0
E0E0
E0E0
E0E0
E0E0
E0E0
FFE0
7FE0
3EE0
0000
7F80
7F80
ENDCHAR
STARTCHAR 20AC
ENCODING 8364
SWIDTH 640 0
DWIDTH 16 0
BBX 16 17 0 0
BITMAP
01F8
07FF
0FFE
1F06
3E00
3C00
FFF8
FFF8
7800
FFF8
FFF8
3C00
3C00
1F06
0FFE
07FF
01FC
ENDCHAR
STARTCHAR 20AD
ENCODING 8365
SWIDTH 560 0
DWIDTH 14 0
BBX 13 17 0 0
BITMAP
7070
70F0
71E0
71C0
7380
7780
7F00
FFF8
FFF8
7700
7780
73C0
71C0
71E0
70F0
7070
7078
ENDCHAR
STARTCHAR 20B1
ENCODING 8369
SWIDTH 520 0
DWIDTH 13 0
BBX 13 17 0 0
BITMAP
7F80
7FE0
73E0
70F0
7070
FFF8
7070
FFF8
7070
70F0
73E0
7FE0
7F80
7000
7000
7000
7000
ENDCHAR
STARTCHAR 20B2
ENCODING 8370
SWIDTH 720 0
DWIDTH 18 0
BBX 16 21 1 -3
BITMAP
0380
07E0
1FF8
3FFC
7BBE
F388
E380
E380
E380
E3FF
E3FF
E387
E38F
F38E
7BBE
3FFC
1FF8
07E0
0380
0380
0380
ENDCHAR
STARTCHAR 20B5
ENCODING 8373
SWIDTH 560 0
DWIDTH 14 0
BBX 12 21 1 -3
BITMAP
0380
0FE0
1FF0
3FF0
7B90
F380
E380
E380
E380
E380
E380
E380
E380
F380
7B90
3FF0
1FF0
0FE0
0380
0380
0380
ENDCHAR
STARTCHAR 20B9
ENCODING 8377
SWIDTH 560 0
DWIDTH 14 0
BBX 11 17 2 0
BITMAP
FFE0
FFE0
0780
0380
0380
FFE0
FFE0
0380
0780
FF00
FC00
F000
7800
3C00
1E00
0F00
0780
ENDCHAR
STARTCHAR 20BA
ENCODING 8378
SWIDTH 480 0
DWIDTH 12 0
BBX 12 17 0 0
BITMAP
7000
7000
7000
7180
7F80
7E00
F000
F380
7F80
FC00
F070
7070
7070
70E0
7FE0
7FC0
7F00
ENDCHAR
STARTCHAR 20BC
ENCODING 8380
SWIDTH 560 0
DWIDTH 14 0
BBX 12 18 1 0
BITMAP
0600
0600
1F80
7FC0
7FE0
F6F0
E670
E670
E670
E670
E670
E670
E670
E670
E670
E670
E670
E670
ENDCHAR
STARTCHAR 20BD
ENCODING 8381
SWIDTH 520 0
DWIDTH 13 0
BBX 13 17 -1 0
BITMAP
3FC0
3FF0
39F8
3878
3838
3838
3838
3878
FFF0
FFE0
3F00
3800
FF00
FF00
3800
3800
3800
ENDCHAR
STARTCHAR 2116
ENCODING 8470
SWIDTH 1200 0
DWIDTH 30 0
BBX 28 17 1 0
BITMAP
F80E0F80
F80E1FE0
FC0E3FF0
FC0E7870
EE0E7070
EE0E7070
E70E7070
E70E7870
E38E3FF0
E38E1FE0
E1CE0F80
E0EE0000
E0EE0000
E07E0000
E07E0000
E03E7FF0
E03E7FF0
ENDCHAR
STARTCHAR 2122
ENCODING 8482
SWIDTH 400 0
DWIDTH 10 0
BBX 10 5 0 12
BITMAP
F480
2580
2F80
2B80
2AC0
ENDCHAR
STARTCHAR 2212
ENCODING 8722
SWIDTH 520 0
DWIDTH 13 0
BBX 11 3 1 7
BITMAP
FFE0
FFE0
FFE0
ENDCHAR
STARTCHAR 2215
ENCODING 8725
SWIDTH 520 0
DWIDTH 13 0
BBX 10 20 1 -2
BITMAP
00C0
01C0
0180
0380
0300
0700
0700
0600
0E00
0C00
1C00
1800
3800
3800
3000
7000
6000
E000
C000
C000
ENDCHAR
STARTCHAR 2219
ENCODING 8729
SWIDTH 560 0
DWIDTH 14 0
BBX 7 7 3 4
BITMAP
38
7C
FE
FE
FE
7C
38
ENDCHAR
STARTCHAR 2248
ENCODING 8776
SWIDTH 560 0
DWIDTH 14 0
BBX 12 9 1 2
BITMAP
3C20
7F70
E7E0
43C0
0000
3800
7E70
E7E0
43C0
ENDCHAR
STARTCHAR 2260
ENCODING 8800
SWIDTH 520 0
DWIDTH 13 0
BBX 10 14 1 1
BITMAP
00C0
0180
0300
FFC0
FFC0
FFC0
0C00
0C00
FFC0
FFC0
FFC0
6000
6000
C000
ENDCHAR
STARTCHAR 2264
ENCODING 8804
SWIDTH 560 0
DWIDTH 14 0
BBX 12 17 0 0
BITMAP
0010
00F0
03F0
0FC0
7F00
7800
7C00
3F00
0FC0
03F0
0070
0010
0000
0000
FFF0
FFF0
FFF0
ENDCHAR
STARTCHAR 2265
ENCODING 8805
SWIDTH 560 0
DWIDTH 14 0
BBX 12 17 1 0
BITMAP
C000
F000
FC00
3F00
0FE0
01E0
01E0
0FC0
3F00
FC00
E000
8000
0000
0000
FFF0
FFF0
FFF0
ENDCHAR
STARTCHAR FB01
ENCODING 64257
SWIDTH 600 0
DWIDTH 15 0
BBX 13 18 0 0
BITMAP
0F00
1FB8
3F38
3838
3810
3800
3800
FF38
FF38
FF38
3838
3838
3838
3838
3838
3838
3838
3838
ENDCHAR
STARTCHAR FB02
ENCODING 64258
SWIDTH 560 0
DWIDTH 14 0
BBX 13 18 0 0
BITMAP
0FB8
1FB8
3F38
3838
3838
3838
3838
FF38
FF38
FF38
3838
3838
3838
3838
3838
3838
3838
3838
ENDCHAR
ENDFONT
